<svg xmlns="http://www.w3.org/2000/svg" viewBox="0 0 130 35" width="130" height="35"><switch><g><path fill="#FFF" fill-rule="nonzero" d="M103.2.8L98.6 25a64 64 0 0 0-1.1 9.7H91l.4-4.3h-.1a9 9 0 0 1-7.8 4.4c-4.1 0-7.4-3.2-7.4-9 0-8.3 6-15.9 15-15.9 1.1 0 2.2.2 3.3.6L96.2.9l7-.1zM93.3 16a4 4 0 0 0-2.8-.8c-4.2 0-7.2 4.9-7.2 9.5 0 2.9 1.3 4.5 3.3 4.5 2.1 0 4.5-2.1 5.4-6.7l1.3-6.5zm-86 10.6c2.4 1.4 5 2.1 7.8 2.1 2.7 0 5.2-1.3 5.2-3.9 0-1.9-1.4-3.1-4.4-4.6-3.6-1.9-6.9-4.4-6.9-8.7C9 4.9 14.8.8 22 .8c4 0 6.4.9 7.8 1.7l-2.2 5.9c-1.9-1-4-1.5-6.1-1.5-3.3 0-5 1.7-5 3.5 0 1.9 2 3.1 4.8 4.6 4 2.1 6.6 4.8 6.6 8.7 0 7.3-6.1 11.1-13.4 11.1-4.6 0-7.9-1.2-9.4-2.3l2.2-5.9zm41 6.3a20.7 20.7 0 0 1-8.9 1.9c-6.8 0-10.3-3.9-10.3-10C29.1 17.5 34.4 10 43 10c4.8 0 8.3 2.7 8.3 7.1 0 6.1-5.9 8.3-15.5 8.1 0 .9.3 1.7.7 2.4.9 1.2 2.5 1.9 4.6 1.9 2.3 0 4.6-.5 6.7-1.5l.5 4.9zM42.1 15c-3.3 0-5.1 2.7-5.6 4.9 5.5.1 8.2-.7 8.2-2.9 0-1.2-.9-2-2.6-2zm8.2 19.7l3.1-16.6c.6-3 1.1-6.2 1.3-8.3H61l-.6 4.5h.1a10 10 0 0 1 8.4-4.5c3.9 0 6.1 2.4 6.1 6.5 0 1.4-.2 2.7-.4 4.1l-2.7 14.3h-7L67.5 21c.2-.9.2-1.8.2-2.7 0-1.7-.6-2.8-2.3-2.8-2.3 0-5 2.9-5.9 8.1l-2.1 11.1h-7.1zm75.1-15c0 8.7-5.9 15.1-14.2 15.1-6.1 0-10.1-4-10.1-9.9 0-8.3 5.8-15.1 14.2-15.1 6.4.1 10.1 4.5 10.1 9.9m-17 5.1c0 2.8 1.4 4.6 3.8 4.6 3.9 0 6-5.6 6-9.7 0-2.2-.9-4.5-3.8-4.5-4 0-6.1 5.9-6 9.6"/><path fill="none" fill-rule="evenodd" d="M-1.7-6h142.6v47.6H-1.7V-6z"/></g></switch></svg>