<svg width="1920" height="170.3" xmlns="http://www.w3.org/2000/svg" xmlns:svg="http://www.w3.org/2000/svg">
    <g class="layer">
        <g stroke="null">
            <g stroke="null">
                <path d="m1061.6,165.88783c0.2,0 0.4,0 0.7,0c0,-0.35383 0,-0.79612 0,-1.14995c-0.4,0.26537 -0.9,0.53074 -0.7,1.14995zm-48.6,-1.32686c-0.2,0.79612 1.8,0.53074 2.1,0.17691c1.2,0 2.8,1.06149 3.4,0c-1.6,0.08846 -3.8,-0.44229 -5.5,-0.17691zm-45.1,-1.59223c-0.2,1.41532 1.8,1.68069 2.9,0.79612c-0.6,-0.79612 -1.9,-0.17691 -2.9,-0.79612zm246.8,3.09601c0.9,0.08846 1.3,-0.17691 1.7,-0.35383c-0.1,-0.35383 -0.5,-0.53074 -0.9,-0.79612c-0.6,0.17691 -0.8,0.53074 -0.8,1.14995zm-122.8,-2.65372c-0.5,-0.08846 -1.1,-0.26537 -1.9,-0.17691c-1.8,1.14995 2.3,1.85761 1.9,0.17691zm173.1,2.56527c0.7,-0.17691 1.2,-0.08846 1.5,0.35383c0.9,-0.35383 -1.6,-1.50378 -1.5,-0.35383zm-95,-1.68069c0,0.17691 0,0.35383 0,0.6192c0.6,0.08846 0.7,-0.17691 0.7,-0.6192c-0.2,0 -0.5,0 -0.7,0zm-1.9,-0.53074c0.3,0 0.6,0 0.9,0c0,0.08846 0,0.26537 0,0.35383c1.4,0.17691 -0.1,-0.70766 1,-0.6192c0,-0.53074 -1.2,-0.26537 -1.9,-0.35383c0.4,0.35383 -0.1,0.17691 0,0.6192zm81.1,0.44229c0,0.17691 0,0.35383 0,0.6192c0.7,-0.26537 1.3,0.44229 1.7,0c-0.2,-0.44229 -0.7,-0.70766 -1.7,-0.6192zm69,-1.41532c-0.8,0.35383 -1.4,0.88457 -2.2,1.14995c0.1,0.17691 0.3,0.35383 0.4,0.6192c1.5,0.08846 1.9,-0.70766 1.8,-1.76915zm-107.2,0.17691c0.7,-0.08846 0.7,0.35383 1.2,0c0,-0.17691 0,-0.26537 0,-0.35383c-0.6,-0.08846 -1.3,-0.35383 -1.2,0.35383zm224.7,1.2384c-0.4,0.26537 -0.3,0.88457 -0.3,1.32686c2,-0.6192 3.5,-0.6192 5.6,-0.26537c-0.3,-0.44229 -1.5,-0.35383 -1.5,-0.97303c-1.1,0.97303 -1.8,-0.35383 -3.8,-0.08846zm-226.9,-1.85761c-0.2,0.44229 0.6,0.26537 0.7,0.6192c0.6,-0.08846 1,-0.79612 0.5,-1.14995c-0.5,0 -1,0.08846 -1.2,0.53074l0,0.00001zm80.7,0.6192c0.2,0.26537 0.4,0.44229 0.5,0.70766c0.5,0 0.7,-0.17691 1,-0.17691c-0.3,-0.35383 -0.7,-0.53074 -1.5,-0.53074l0,-0.00001zm-117.5,-0.88457c0.4,0.26537 0.9,0.08846 1.4,0c-0.1,-0.17691 -0.2,-0.26537 -0.2,-0.53074c-0.7,-0.08846 -1.3,-0.08846 -1.2,0.53074zm125.2,0.79612c-0.1,0.35383 0.1,0.44229 0.2,0.70766c0.4,-0.08846 0.5,-0.35383 0.5,-0.70766c-0.2,0 -0.5,0 -0.7,0zm-5.3,-1.06149c0,0.44229 0.6,0.53074 0.5,0.97303c1.2,-0.26537 0.7,0.6192 1.6,0.53074c-0.3,-0.70766 -0.9,-1.2384 -2.1,-1.50378l0,0.00001zm8.2,-0.70766c-0.6,-0.08846 -0.7,0.17691 -0.7,0.6192c-0.7,0 -0.5,-0.53074 -1.2,-0.53074c0.3,0.44229 0,0.79612 -0.5,1.14995c1.2,0.6192 3,0.79612 4.6,1.06149c-0.7,-0.79612 -2.5,-0.79612 -2.2,-2.29989l0,-0.00001zm69.6,2.56527c0.1,0.26537 0.8,0.08846 0.8,0.35383c0.1,-0.08846 0.2,-0.17691 0.4,-0.17691c0,-0.08846 0,-0.26537 0,-0.35383c-0.6,0 -0.9,0 -1.2,0.17691zm-63.5,-2.29989c-0.9,1.2384 0.3,2.29989 2.1,1.68069c0,-0.26537 -0.4,-0.35383 -0.9,-0.35383c0,-0.6192 1.2,-0.44229 1.2,-1.14995c-1.1,0.08846 -1.5,-0.26537 -2.4,-0.17691zm18,1.85761c1.2,-0.26537 1.7,-0.35383 2.9,0c0.5,-0.26537 0.4,-0.97303 1,-1.14995c-0.5,-0.44229 -1.2,-0.53074 -1.9,-0.17691c0.6,-0.97303 2.1,-1.14995 3.9,-1.06149c-0.8,-0.53074 0.4,-0.70766 -0.2,-1.32686c-1.3,0.35383 -2,0 -2.7,0.6192c-0.8,-0.08846 -0.3,-0.6192 -0.2,-0.97303c-0.4,0.08846 -0.4,0.53074 -1.2,0.35383c0.4,0.44229 0.8,1.06149 -0.2,1.14995c0.7,0.97303 -0.7,1.32686 0.5,1.85761c-0.5,-0.08846 -1.5,-0.35383 -1.9,0c0.5,0.26537 0.4,0.35383 0,0.70766l0,-0.00001zm146.2,0.70766c0.4,0.26537 1.1,0.35383 1.9,0.35383c0.3,-1.06149 -1.4,-0.53074 -1.9,-0.35383zm54.7,0c0,0.17691 2,0.35383 1.7,-0.17691c-0.8,-0.08846 -0.9,0.26537 -1.7,0.17691zm-231.2,-4.59979c-1.2,0 -1.2,0.79612 -1.7,1.32686c-0.8,0 -0.8,-0.6192 -1.9,-0.53074c0,1.2384 1.1,0.6192 2.2,0.70766c1.8,0.08846 4.2,0.17691 5.5,0.35383c0,-0.26537 -0.4,-0.35383 -0.3,-0.6192c0,-0.17691 0.4,-0.17691 0.7,-0.17691c-0.2,-0.44229 -0.7,-0.79612 -1.4,-0.97303c-0.1,1.2384 -4,1.59223 -3.1,-0.08846l0,-0.00001zm28.7,1.85761c0.9,-0.17691 0.6,0.44229 1.4,0.35383c-0.2,-0.97303 0.3,-0.97303 1,-0.97303c-0.2,-0.44229 -1,-0.6192 -1,-1.14995c-0.5,0.08846 -0.6,0.35383 -1.4,0.26537c1.4,0.53074 -0.4,0.44229 0,1.50378zm-19.8,-0.35383c1,-0.08846 1,-0.6192 2.2,-0.26537c-0.5,-0.35383 -1.3,-0.53074 -2.4,-0.53074c-0.2,0.35383 0.4,0.35383 0.2,0.79612l0,-0.00001zm34.3,-2.9191c-1.1,-0.08846 -1.4,0.44229 -2.2,0.6192c0,0.26537 0.6,0.17691 0.4,0.6192c0.7,-0.08846 1.4,-0.35383 1.6,-0.79612c0.5,0.26537 1.9,0.26537 1.6,-0.26537c-0.6,0.08846 -0.9,0.17691 -1.5,0.08846c0,-0.08846 0.2,-0.17691 0.1,-0.26537zm-92.8,-3.18447c0.2,0.53074 -0.3,0.53074 -1,0.44229c0.2,0.6192 2.6,-0.17691 2.9,0.70766c-0.2,0.44229 -1.5,0 -1.7,0.35383c-1,-0.53074 -1.5,-0.44229 -2.9,-0.53074c1,1.2384 3,0.88457 4.4,1.14995c0.4,-0.35383 0.6,-0.88457 0.5,-1.59223c-1.1,0.17691 -0.7,-0.79612 -2.2,-0.53074l0,-0.00002zm433.6,2.56527c-0.3,-0.70766 -3,-1.06149 -3.6,-0.17691c1.4,-0.08846 2.5,0.70766 3.6,0.17691zm45.4,0.17691c0.3,0.44229 1,0.53074 1.9,0.53074c-0.1,-0.6192 -0.9,-0.70766 -1.2,-1.14995c-0.5,0.08846 -0.3,0.6192 -0.7,0.6192l0,0.00001zm53.2,0c0.3,0.70766 1.5,0.08846 2.4,0.17691c-0.2,-1.06149 -1.5,-0.08846 -2.4,-0.17691zm-469.9,0.97303c-0.5,0.08846 -1.1,-0.44229 -2.1,-0.53074c-0.2,0.70766 1.5,0.26537 1.7,0.79612c0.2,0 0.2,-0.35383 0.4,-0.26537l0,-0.00001zm-27.2,0.08846c0.1,0 0.2,0 0.3,0c-0.1,-0.08846 -0.2,-0.17691 -0.2,-0.26537c0,0.08846 0,0.17691 -0.1,0.26537zm0,0c-0.2,0 -0.5,-0.08846 -0.6,0.08846c0.3,0 0.5,0 0.6,-0.08846zm4,-1.32686c-0.4,0.44229 -1.1,0.70766 -1.5,1.14995c-0.9,-0.08846 -1.5,0 -2.2,0.17691c0.4,0.17691 1.3,0.17691 1,0.88457c1,-0.53074 1.6,-0.35383 3.1,-0.26537c0,-0.26537 -0.1,-0.53074 0.2,-0.53074c-0.8,-0.35383 -0.9,-0.6192 -0.6,-1.41532zm-15,4.51133c2.4,0 6.5,-0.17691 7.7,1.85761c0.8,-0.44229 2.1,-0.6192 3.6,-0.6192c0.1,-0.26537 -0.1,-0.35383 -0.4,-0.35383c0.1,-0.44229 1.3,-0.08846 1.9,-0.17691c0.2,0.08846 0.2,0.35383 0.2,0.97303c1,-0.17691 1.2,0.26537 1.9,0.35383c0.7,-0.08846 1.4,-0.26537 1.2,-0.97303c1.9,-0.08846 1.7,1.2384 3.6,0.70766c-0.6,-0.97303 0.5,-0.6192 0.7,-1.32686c0.9,-0.08846 1.6,0 2.2,0.17691c0,-0.44229 -1,-0.35383 -1,-0.79612c-4.5,1.85761 -4.5,-2.47681 -7,0.44229c-2.5,-0.53074 -4,-0.6192 -6.5,0.08846c-0.6,-0.08846 -0.3,-0.70766 -0.9,-0.70766c0.3,-0.6192 1.4,0.17691 1.7,-0.6192c-0.8,0.17691 -2.7,0.08846 -3.6,-0.53074c-0.5,0.08846 -0.6,0.44229 -1,0.6192c-1.4,-0.79612 -4.5,-0.6192 -6.5,-0.08846c0.8,0.17691 1.8,0.26537 2.2,0.97303l0,-0.00001zm47.7,0.08846c1.8,-0.70766 4,0.26537 5.3,-1.06149c-0.5,-0.26537 -1.7,0 -1.2,-0.97303c-0.8,-0.08846 -1,-0.53074 -1.9,-0.17691c-0.2,-0.08846 -0.4,-0.26537 -0.4,-0.6192c1,-0.6192 2.7,-0.35383 4.6,-0.44229c-0.9,-0.17691 -0.7,-0.53074 -0.5,-1.14995c-0.8,0.17691 -1.4,0.44229 -1.9,0.79612c-1.9,-0.79612 -4.3,0 -6,-0.35383c0.5,0.79612 2.5,0.6192 3.4,1.14995c0.1,0.53074 -0.8,0.35383 -0.5,0.97303c0.3,0 0.7,0 1,0c-0.9,0.44229 -1,1.41532 -1.9,1.85761l0,-0.00001zm-27.7,-3.98059c-0.3,0.17691 -1,0.17691 -1,0.6192c-0.4,-0.26537 -1,-0.35383 -1.2,-0.70766c-0.7,-0.08846 -0.5,0.53074 -1.4,0.35383c-0.2,0.44229 -0.1,0.6192 -0.5,1.14995c1.4,-0.44229 2.1,0.6192 3.3,0.17691c0.9,0.53074 0.2,0.88457 0.5,1.68069c0.9,-0.17691 0.7,-1.14995 1,-1.76915c1,0.44229 2.2,-0.17691 2,-1.14995c-1.2,0 -1,-0.08846 -2,0c-0.3,0.17691 -0.1,0.79612 -0.7,0.79612c-1,-0.17691 0.2,-0.53074 0,-1.14995l0,0.00001zm170.7,8.04963c0.2,0 0.4,0 0.7,0c0,-0.35383 0,-0.79612 0,-1.14995c-0.4,0.26537 -0.9,0.53074 -0.7,1.14995zm-48.7,-1.32686c-0.2,0.79612 1.8,0.53074 2.1,0.17691c1.1,0 2.8,1.06149 3.4,0c-1.6,0.08846 -3.7,-0.44229 -5.5,-0.17691zm201.7,1.50378c0.9,0.08846 1.3,-0.17691 1.7,-0.35383c-0.1,-0.35383 -0.5,-0.53074 -0.9,-0.79612c-0.6,0.17691 -0.8,0.53074 -0.8,1.14995zm-122.7,-2.65372c-0.5,-0.08846 -1.1,-0.26537 -1.9,-0.17691c-1.8,1.14995 2.3,1.85761 1.9,0.17691zm173.1,2.56527c0.7,-0.17691 1.2,-0.08846 1.5,0.35383c0.9,-0.35383 -1.6,-1.50378 -1.5,-0.35383zm-95.1,-1.68069c0,0.17691 0,0.35383 0,0.6192c0.6,0.08846 0.7,-0.17691 0.7,-0.6192c-0.2,0 -0.5,0 -0.7,0zm-1.9,-0.53074c0.3,0 0.6,0 0.9,0c0,0.08846 0,0.26537 0,0.35383c1.4,0.17691 -0.1,-0.70766 1,-0.6192c0,-0.53074 -1.2,-0.26537 -1.9,-0.35383c0.4,0.35383 0,0.17691 0,0.6192zm81.2,0.44229c0,0.17691 0,0.35383 0,0.6192c0.7,-0.26537 1.3,0.44229 1.7,0c-0.3,-0.44229 -0.8,-0.70766 -1.7,-0.6192zm69,-1.41532c-0.8,0.35383 -1.4,0.88457 -2.2,1.14995c0.1,0.17691 0.3,0.35383 0.4,0.6192c1.5,0.08846 1.8,-0.70766 1.8,-1.76915zm-107.2,0.17691c0.7,-0.08846 0.7,0.35383 1.2,0c0,-0.17691 0,-0.26537 0,-0.35383c-0.7,-0.08846 -1.3,-0.35383 -1.2,0.35383zm224.7,1.2384c-0.3,0.26537 -0.2,0.88457 -0.2,1.32686c1.9,-0.6192 3.4,-0.6192 5.5,-0.26537c-0.3,-0.44229 -1.5,-0.35383 -1.5,-0.97303c-1.1,0.97303 -1.8,-0.35383 -3.8,-0.08846zm-226.9,-1.85761c-0.2,0.44229 0.6,0.26537 0.7,0.6192c0.6,-0.08846 1,-0.79612 0.5,-1.14995c-0.6,0 -1.1,0.08846 -1.2,0.53074l0,0.00001zm80.6,0.6192c0.2,0.26537 0.4,0.44229 0.5,0.70766c0.5,0 0.7,-0.17691 1,-0.17691c-0.2,-0.35383 -0.7,-0.53074 -1.5,-0.53074l0,-0.00001zm-117.5,-0.88457c0.4,0.26537 0.9,0.08846 1.4,0c-0.1,-0.17691 -0.2,-0.26537 -0.2,-0.53074c-0.7,-0.08846 -1.3,-0.08846 -1.2,0.53074zm125.3,0.79612c-0.1,0.35383 0.1,0.44229 0.2,0.70766c0.4,-0.08846 0.5,-0.35383 0.5,-0.70766c-0.3,0 -0.5,0 -0.7,0zm-5.3,-1.06149c0,0.44229 0.6,0.53074 0.5,0.97303c1.2,-0.26537 0.7,0.6192 1.6,0.53074c-0.3,-0.70766 -1,-1.2384 -2.1,-1.50378l0,0.00001zm8.1,-0.70766c-0.6,-0.08846 -0.7,0.17691 -0.7,0.6192c-0.7,0 -0.5,-0.53074 -1.2,-0.53074c0.3,0.44229 0,0.79612 -0.5,1.14995c1.2,0.6192 3,0.79612 4.6,1.06149c-0.6,-0.79612 -2.5,-0.79612 -2.2,-2.29989l0,-0.00001zm82.4,2.47681c0,1.2384 2.3,0.35383 3.6,0.53074c-0.1,-0.17691 -1.3,-0.35383 -0.5,-0.6192c-0.4,0 -1.9,0.88457 -3.1,0.08846zm-12.9,0.08846c0.1,0.26537 0.8,0.08846 0.8,0.35383c0.2,-0.08846 0.3,-0.17691 0.5,-0.17691c0,-0.08846 0,-0.26537 0,-0.35383c-0.5,0 -0.9,0 -1.3,0.17691zm-63.4,-2.29989c-0.9,1.2384 0.3,2.29989 2.1,1.68069c0,-0.26537 -0.4,-0.35383 -0.9,-0.35383c0,-0.6192 1.2,-0.44229 1.2,-1.14995c-1.1,0.08846 -1.5,-0.26537 -2.4,-0.17691zm18.1,1.85761c1.2,-0.26537 1.7,-0.35383 2.9,0c0.5,-0.26537 0.4,-0.97303 1,-1.14995c-0.5,-0.44229 -1.2,-0.53074 -1.9,-0.17691c0.6,-0.97303 2.1,-1.14995 3.9,-1.06149c-0.8,-0.53074 0.4,-0.70766 -0.2,-1.32686c-1.3,0.35383 -2,0 -2.7,0.6192c-0.8,-0.08846 -0.3,-0.6192 -0.2,-0.97303c-0.4,0.08846 -0.4,0.53074 -1.2,0.35383c0.4,0.44229 0.8,1.06149 -0.2,1.14995c0.7,0.97303 -0.7,1.32686 0.5,1.85761c-0.5,-0.08846 -1.5,-0.35383 -1.9,0c0.5,0.26537 0.4,0.35383 0,0.70766l0,-0.00001zm31,-0.26537c0,0.26537 0.4,0.35383 0.3,0.6192c0.5,0 0.6,-0.08846 0.9,-0.17691c-0.2,-0.35383 -0.4,-0.6192 -1.2,-0.44229zm7.8,-1.94606c-0.4,0.26537 -1.2,0.26537 -1.2,0.79612c0.7,-0.17691 1.5,0 1.9,-0.17691c1.1,0.35383 0.4,0.97303 0.2,1.68069c0.8,0.17691 1.7,0.35383 2.4,0.17691c-0.8,-0.6192 -1.5,-1.32686 -0.7,-2.29989c-0.8,-0.17691 -1,-0.6192 -1.9,-0.70766c-0.1,-0.44229 1.6,0.26537 1.2,-0.44229c-1.9,0.44229 -1.8,-0.6192 -3.1,-0.53074c0.6,0.44229 -0.4,0.08846 -0.3,0.6192c1.1,-0.08846 0.9,0.70766 1.5,0.88457zm-17.5,0.97303c0,0.53074 0.8,0.6192 0.9,1.14995c0.6,-0.44229 1.1,0.17691 1.5,-0.17691c-0.6,-0.97303 1.3,-0.88457 1.5,-1.76915c-1.4,-0.6192 -1.9,0.79612 -3.6,0.44229c0.1,0.17691 0,0.26537 -0.3,0.35383l0,-0.00001zm124.9,1.94606c0.4,0.26537 1.1,0.35383 1.9,0.35383c0.2,-1.06149 -1.4,-0.53074 -1.9,-0.35383zm-135.1,-2.83064c0.2,0.26537 0.6,0.35383 0.7,0.70766c0.6,-0.08846 1.5,-0.26537 1.1,0.53074c1.8,-0.44229 3.5,-0.88457 4,-2.12298c0.6,0.6192 3.6,1.14995 4.3,0.35383c0,-0.53074 -1.1,-0.26537 -1,-0.79612c-0.8,-0.08846 -0.1,0.79612 -1,0.6192c-0.8,0.17691 -0.3,-0.53074 -0.7,-0.6192c-1.7,0.35383 -4.8,0.79612 -5.6,1.59223c-0.5,-0.08846 -1,-0.26537 -1.8,-0.26537l0,0.00001zm43,0.88457c0,0.6192 1,0.6192 1.7,0.70766c0.4,-0.53074 0.6,-1.06149 0.3,-1.32686c-0.8,0 -0.2,0.26537 -0.5,0.79612c-0.8,0.08846 -0.7,-0.35383 -1.5,-0.17691l0,-0.00001zm137.5,1.68069c0.2,0.6192 2.1,0.26537 2.7,0.17691c-0.5,-0.35383 -1.2,-0.53074 -2.2,-0.53074c-0.1,0.08846 -0.2,0.26537 -0.5,0.35383zm-221.9,-4.33442c-1.2,0 -1.2,0.79612 -1.7,1.32686c-0.8,0 -0.8,-0.6192 -1.9,-0.53074c0,1.2384 1.1,0.6192 2.2,0.70766c1.8,0.08846 4.2,0.17691 5.5,0.35383c0,-0.26537 -0.4,-0.35383 -0.3,-0.6192c0,-0.17691 0.4,-0.17691 0.7,-0.17691c-0.2,-0.44229 -0.7,-0.79612 -1.4,-0.97303c-0.2,1.2384 -4.1,1.59223 -3.1,-0.08846l0,-0.00001zm28.6,1.85761c0.9,-0.17691 0.6,0.44229 1.4,0.35383c-0.2,-0.97303 0.3,-0.97303 1,-0.97303c-0.2,-0.44229 -1,-0.6192 -1,-1.14995c-0.5,0.08846 -0.6,0.35383 -1.4,0.26537c1.4,0.53074 -0.3,0.44229 0,1.50378zm-19.8,-0.35383c1,-0.08846 1,-0.6192 2.2,-0.26537c-0.5,-0.35383 -1.3,-0.53074 -2.4,-0.53074c-0.1,0.35383 0.5,0.35383 0.2,0.79612l0,-0.00001zm52.5,0.26537c-0.5,-0.17691 -1.1,0 -1.9,-0.35383c0,0.26537 0.4,0.35383 0.3,0.6192c0.9,0 0.6,-0.17691 1.4,0c0,-0.17691 0.1,-0.26537 0.2,-0.26537zm66.7,0.70766c0.2,0 0.2,-0.08846 0.2,-0.17691s0,-0.26537 0,-0.44229c-0.4,0.35383 -1.1,0.08846 -1.1,-0.35383c-1,-0.17691 -1.1,0.26537 -1.7,0.44229c0.3,0.70766 2.2,0.26537 2.6,0.53074zm-45.7,-0.97303c0.3,0.44229 1.2,0.17691 1.9,0c-0.4,-0.17691 -0.3,-0.70766 -0.7,-0.97303c-0.8,-0.08846 -0.3,0.97303 -1.2,0.97303zm129.2,0.53074c-0.3,0.17691 -1,0.17691 -1,0.6192c1,0 1.3,-0.26537 1.9,0.17691c0.8,-0.35383 -0.9,-0.53074 -0.9,-0.79612l0,0.00001zm-8.3,-0.08846c0.1,0 0.1,-0.08846 0.2,-0.08846c-0.3,0.08846 -0.5,0 -0.8,0c0.2,0 0.4,0.08846 0.6,0.08846zm2.2,0c-0.6,-0.88457 -1.1,-0.17691 -2,-0.08846c0.7,-0.08846 1.5,0.26537 2,0.08846zm-2.8,-0.08846c-2.5,-0.26537 -5.7,-1.41532 -7.8,-0.35383c2.1,0.88457 5.1,0.6192 7.8,0.35383zm-129,-1.14995c0.4,-0.88457 -1.6,-1.2384 -1.4,-0.17691c0.7,-0.08846 0.7,0.26537 1.4,0.17691zm-18.2,-1.14995c0.1,-0.79612 -1.1,-0.6192 -1,-1.32686c-0.7,0.70766 -1.1,-0.08846 -2.4,0c0.3,0.44229 0.6,0.79612 1,1.14995c1,-0.17691 1.4,0.17691 2.4,0.17691zm-10.9,-0.79612c-0.8,0.17691 -0.9,0.35383 -1.9,0.17691c-0.1,0.53074 2.3,0.44229 1.9,-0.17691zm168.1,1.32686c-1,-0.17691 -1.7,0 -2.6,-0.53074c-0.3,0.26537 -1.3,0.17691 -1.2,0.79612c1.4,-0.08846 3.5,1.06149 3.8,-0.26537l0,-0.00001zm3.9,0.53074c0.2,-1.14995 -3,-1.06149 -2.9,0c0.9,0.35383 1.7,-0.08846 2.9,0zm1.4,-0.44229c2,1.32686 6.1,0.17691 8.7,0.70766c0.5,-0.88457 -1.5,-1.14995 -1.7,-0.53074c-2.6,-0.70766 -4.3,-0.35383 -7,-0.17691l0,-0.00001zm-29,-1.14995c-1.7,0.35383 -5.4,-0.53074 -7,0.44229c1.4,1.06149 4.3,0.35383 6.7,0.53074c0.1,-0.6192 0.7,-0.44229 0.3,-0.97303zm35.3,0.08846c-0.1,-0.17691 -0.3,-0.26537 -0.2,-0.53074c-0.9,0.08846 -2.1,-0.53074 -2.4,0.17691c-0.2,0.44229 0.8,0.17691 0.7,0.6192c0.7,-0.44229 1.3,-0.08846 1.9,-0.26537zm-134.8,-1.14995c-0.1,0 -0.1,0 0,0c-0.1,0 0,0 0,0c-0.1,0 -0.1,0 0,0zm-0.1,0c-0.1,-0.17691 -0.1,-0.44229 -0.6,-0.35383c-0.1,0.35383 0.2,0.26537 0.6,0.35383zm-76.6,1.14995c-0.5,0.08846 -1.1,-0.44229 -2.1,-0.53074c-0.2,0.70766 1.5,0.26537 1.7,0.79612c0.2,0 0.1,-0.35383 0.4,-0.26537l0,-0.00001zm159.1,3.44984c-0.5,0.44229 -0.5,0.88457 0,1.32686c3.6,-0.6192 7.7,0.17691 11.1,-0.53074c0.2,0.17691 0.4,0.35383 0.5,0.53074c7.1,0 15.5,0.6192 23.1,0.26537c3.4,0.88457 10.5,0.35383 14.4,0.6192c-1.8,-1.68069 -7.1,-0.53074 -9.4,-0.88457c-0.7,0 -1.2,0.17691 -1.7,0.44229c-2.4,-0.53074 -4.3,-0.53074 -6.2,-1.2384c-4.9,0.6192 -8.9,-1.2384 -12.5,0c-0.8,0 -0.1,-0.97303 -1.2,-0.70766c-0.3,-0.44229 0.5,-0.97303 0,-0.97303c-1,0.35383 -1.6,0.35383 -2.1,-0.35383c-1.1,0 -1.6,0.44229 -2.9,0.26537c-0.3,0.44229 -0.2,0.53074 0.2,0.97303c-0.7,0.08846 -1.4,0.26537 -1.9,0.6192c-0.5,-0.26537 -0.7,-0.70766 -1.6,-0.70766c0.5,-0.6192 1.3,-0.26537 2.6,-0.26537c-0.9,-0.70766 0.9,-0.53074 0.5,-1.32686c-2.1,0.53074 -3.4,0.17691 -5.8,-0.08846c-0.2,1.06149 -1.7,0.88457 -2.7,0.97303c-0.3,0.53074 0,0.35383 0,0.97303c-1.5,0.26537 -2,-0.17691 -4.4,0.08846zm-186.4,-3.36138c0.1,0 0.2,0 0.3,0c-0.1,-0.08846 -0.2,-0.17691 -0.2,-0.26537c0.1,0.08846 0,0.17691 -0.1,0.26537zm0,0c-0.2,0 -0.5,-0.08846 -0.6,0.08846c0.3,0 0.5,0 0.6,-0.08846zm4.1,-1.32686c-0.4,0.44229 -1.1,0.70766 -1.5,1.14995c-0.9,-0.08846 -1.5,0 -2.2,0.17691c0.4,0.17691 1.3,0.17691 1,0.88457c1,-0.53074 1.6,-0.35383 3.1,-0.26537c0,-0.26537 -0.1,-0.53074 0.2,-0.53074c-0.8,-0.35383 -0.9,-0.6192 -0.6,-1.41532zm184.8,-1.85761c-0.3,-0.6192 -0.7,0.08846 -1.2,0.17691c0.7,1.59223 -2,0.35383 -2.7,0.79612c0,0.70766 0.9,0.88457 1.6,1.14995c0.7,-0.53074 1.4,-0.6192 2.4,-0.6192c-0.4,-0.17691 -1.6,-1.59223 -0.1,-1.50378zm-199.9,6.36894c2.4,0 6.5,-0.17691 7.7,1.85761c0.8,-0.44229 2.1,-0.6192 3.6,-0.6192c0.2,-0.26537 -0.1,-0.35383 -0.4,-0.35383c0.1,-0.44229 1.3,-0.08846 1.9,-0.17691c0.2,0.08846 0.2,0.35383 0.2,0.97303c1,-0.17691 1.2,0.26537 1.9,0.35383c0.7,-0.08846 1.4,-0.26537 1.2,-0.97303c1.9,-0.08846 1.7,1.2384 3.6,0.70766c-0.6,-0.97303 0.5,-0.6192 0.7,-1.32686c0.9,-0.08846 1.6,0 2.2,0.17691c0,-0.44229 -1,-0.35383 -1,-0.79612c-4.5,1.85761 -4.5,-2.47681 -7,0.44229c-2.5,-0.53074 -4,-0.6192 -6.5,0.08846c-0.6,-0.08846 -0.3,-0.70766 -0.9,-0.70766c0.3,-0.6192 1.4,0.17691 1.7,-0.6192c-0.8,0.17691 -2.7,0.08846 -3.6,-0.53074c-0.5,0.08846 -0.6,0.44229 -1,0.6192c-1.4,-0.79612 -4.5,-0.6192 -6.5,-0.08846c0.9,0.17691 1.9,0.26537 2.2,0.97303l0,-0.00001zm47.8,0.08846c1.8,-0.70766 4,0.26537 5.3,-1.06149c-0.5,-0.26537 -1.7,0 -1.2,-0.97303c-0.8,-0.08846 -1,-0.53074 -1.9,-0.17691c-0.2,-0.08846 -0.4,-0.26537 -0.4,-0.6192c1,-0.6192 2.7,-0.35383 4.6,-0.44229c-0.9,-0.17691 -0.7,-0.53074 -0.5,-1.14995c-0.8,0.17691 -1.4,0.44229 -1.9,0.79612c-1.9,-0.79612 -4.3,0 -6,-0.35383c0.5,0.79612 2.5,0.6192 3.4,1.14995c0.1,0.53074 -0.8,0.35383 -0.5,0.97303c0.3,0 0.7,0 1,0c-1,0.44229 -1.1,1.41532 -1.9,1.85761l0,-0.00001zm142.7,0.26537c1,-0.35383 1.4,0 1.2,0.79612c2.3,-0.35383 2.8,0.79612 4.3,-0.08846c-0.4,-1.41532 0.9,-1.68069 1.5,-2.29989c-1.2,-0.44229 -3.6,0.17691 -5.3,-0.26537c-0.2,0.53074 -0.6,0.79612 -1.5,0.79612c0.2,0.53074 -0.2,0.6192 -0.2,1.06149l0,-0.00001zm-91.3,-0.44229c-0.1,0.26537 -0.4,0.44229 -0.7,0.53074c0.6,0.35383 2.1,0.08846 1.9,0.88457c0.4,-0.44229 0.2,-0.53074 1.2,-0.35383c-1.5,-0.79612 1.4,-1.59223 -0.2,-1.68069c0.2,-0.26537 1.4,0 2,-0.08846c0.3,0.17691 0.3,0.6192 0.7,0.79612c-0.2,0.35383 -0.9,0.35383 -1.2,0.53074c0,0.26537 0.7,0.17691 0.5,0.6192c1.1,0.08846 2,0.08846 2.6,-0.26537c0.5,0.08846 0.6,0.35383 0.5,0.70766c0.2,0 0.6,0 0.9,0c0,-0.26537 0.1,-0.35383 0.3,-0.35383c-1,-0.79612 0.2,-1.41532 -0.9,-1.85761c0.4,-0.08846 0.5,-0.53074 1,-0.6192c-0.2,-0.35383 -0.9,-0.35383 -1.2,-0.53074c0.6,-1.50378 1.9,-0.53074 3.4,-0.79612c-1.3,-1.50378 -3.6,-0.35383 -5.6,-0.08846c-0.3,-0.08846 -0.4,-0.35383 -0.5,-0.6192c-0.5,0.26537 -1.5,0.26537 -0.9,-0.35383c-0.3,0.17691 -0.7,0.26537 -1.2,0.17691c-0.1,-0.35383 0.2,-0.35383 0.5,-0.35383c-0.2,-0.17691 -0.6,-0.17691 -0.5,-0.53074c-1.5,0 -1.6,0.97303 -2.5,1.41532c0.8,0.44229 1.5,0.79612 2.4,0.70766c-0.1,0.88457 -2.5,0.08846 -2,1.41532c0.3,0 0.6,0 0.9,0c0,0.08846 0,0.26537 0,0.35383c-0.6,0.35383 -1.8,-0.26537 -2.1,-0.70766c-0.4,0.08846 -0.7,0.17691 -0.7,0.6192c0.8,-0.17691 1,0.17691 1.4,0.44229l0,0.00001zm-79.2,-3.80367c-0.3,0.17691 -1,0.17691 -1,0.6192c-0.4,-0.26537 -1,-0.35383 -1.2,-0.70766c-0.7,-0.08846 -0.5,0.53074 -1.4,0.35383c-0.1,0.44229 -0.1,0.6192 -0.5,1.14995c1.4,-0.44229 2.1,0.6192 3.3,0.17691c0.9,0.53074 0.2,0.88457 0.5,1.68069c0.9,-0.17691 0.7,-1.14995 1,-1.76915c1,0.44229 2.2,-0.17691 2,-1.14995c-1.2,0 -1,-0.08846 -2,0c-0.3,0.17691 -0.1,0.79612 -0.7,0.79612c-1,-0.17691 0.2,-0.53074 0,-1.14995l0,0.00001zm-846,6.89968c0,0.35383 0,0.79612 0,1.14995c0.3,0 0.5,0 0.7,0c0.1,-0.6192 -0.4,-0.88457 -0.7,-1.14995zm43.8,0c0.6,1.06149 2.2,0 3.4,0c0.2,0.35383 2.3,0.6192 2.1,-0.17691c-1.8,-0.26537 -4,0.26537 -5.5,0.17691zm47.6,-0.97303c1.1,0.97303 3.1,0.70766 2.9,-0.79612c-1,0.6192 -2.3,0 -2.9,0.79612zm-245.7,1.94606c0.4,0.26537 0.8,0.44229 1.7,0.35383c0.1,-0.6192 -0.1,-1.06149 -0.7,-1.14995c-0.4,0.26537 -0.8,0.44229 -1,0.79612zm124.6,-2.29989c-0.4,1.68069 3.7,0.97303 1.9,-0.17691c-0.8,0 -1.4,0.08846 -1.9,0.17691zm-174.7,2.9191c0.3,-0.53074 0.8,-0.53074 1.5,-0.35383c0.2,-1.14995 -2.3,0 -1.5,0.35383zm96.6,-2.03452c-0.2,0 -0.5,0 -0.7,0c-0.1,0.44229 0,0.70766 0.7,0.6192c0,-0.17691 0,-0.44229 0,-0.6192zm1,-0.17691c0,-0.08846 0,-0.26537 0,-0.35383c0.2,0 0.6,0 0.9,0c0.1,-0.44229 -0.4,-0.26537 0,-0.6192c-0.7,0.08846 -1.9,-0.17691 -1.9,0.35383c1.1,-0.08846 -0.3,0.70766 1,0.6192zm-81.9,0.70766c0.4,0.53074 1,-0.17691 1.7,0c0,-0.17691 0,-0.35383 0,-0.6192c-1,-0.08846 -1.5,0.17691 -1.7,0.6192zm-67.2,-2.03452c-0.2,1.06149 0.2,1.85761 1.7,1.76915c0.1,-0.26537 0.3,-0.35383 0.4,-0.6192c-0.8,-0.26537 -1.4,-0.79612 -2.1,-1.14995zm105.9,-0.17691c0,0.08846 0,0.26537 0,0.35383c0.5,0.35383 0.5,-0.08846 1.2,0c0.1,-0.70766 -0.6,-0.44229 -1.2,-0.35383zm-228.8,2.74218c2.1,-0.35383 3.7,-0.35383 5.6,0.26537c-0.1,-0.53074 0.1,-1.06149 -0.3,-1.32686c-2,-0.35383 -2.7,0.97303 -3.8,0c0,0.6192 -1.2,0.44229 -1.5,1.06149zm231,-3.62676c-0.5,0.35383 -0.2,1.06149 0.5,1.14995c0.1,-0.26537 0.9,-0.08846 0.7,-0.6192c-0.2,-0.35383 -0.7,-0.44229 -1.2,-0.53074l0,-0.00001zm-81,1.76915c0.3,0.08846 0.5,0.26537 1,0.17691c0.1,-0.26537 0.3,-0.44229 0.5,-0.70766c-0.7,0 -1.2,0.17691 -1.5,0.53074l0,0.00001zm117.6,-1.41532c0.5,0.08846 1,0.35383 1.4,0c0.1,-0.53074 -0.5,-0.53074 -1.2,-0.53074c0,0.26537 -0.1,0.35383 -0.2,0.53074zm-124.5,0.79612c-0.1,0.44229 0.1,0.6192 0.5,0.70766c0.1,-0.26537 0.3,-0.35383 0.2,-0.70766c-0.2,0 -0.5,0 -0.7,0zm3.9,0.44229c0.8,0.08846 0.4,-0.79612 1.6,-0.53074c0,-0.44229 0.6,-0.53074 0.5,-0.97303c-1.2,0.26537 -1.8,0.79612 -2.1,1.50378l0,-0.00001zm-8.3,0.08846c1.7,-0.26537 3.4,-0.53074 4.6,-1.06149c-0.5,-0.35383 -0.8,-0.70766 -0.5,-1.14995c-0.7,0 -0.5,0.53074 -1.2,0.53074c0.1,-0.44229 -0.1,-0.70766 -0.7,-0.6192c0.4,1.50378 -1.5,1.50378 -2.2,2.29989l0,0.00001zm-83.8,0.79612c1.3,-0.17691 3.6,0.70766 3.6,-0.53074c-1.2,0.70766 -2.6,-0.17691 -3.1,-0.17691c0.9,0.26537 -0.4,0.53074 -0.5,0.70766l0,-0.00001zm15.3,-0.70766c0,0.17691 0,0.26537 0,0.35383c0.2,0 0.2,0.17691 0.4,0.17691c0,-0.26537 0.7,-0.08846 0.8,-0.35383c-0.4,-0.17691 -0.7,-0.17691 -1.2,-0.17691zm62.3,-1.94606c-0.1,0.70766 1.1,0.53074 1.2,1.14995c-0.5,0 -0.9,0.08846 -0.9,0.35383c1.8,0.6192 3,-0.53074 2.1,-1.68069c-1,-0.08846 -1.4,0.26537 -2.4,0.17691zm-22,-0.53074c1.8,-0.17691 3.3,0.08846 3.9,1.06149c-0.7,-0.35383 -1.4,-0.26537 -1.9,0.17691c0.6,0.26537 0.5,0.88457 1,1.14995c1.2,-0.35383 1.7,-0.26537 2.9,0c-0.2,-0.44229 -0.3,-0.53074 0.2,-0.79612c-0.4,-0.35383 -1.4,-0.08846 -1.9,0c1.2,-0.6192 -0.1,-0.97303 0.5,-1.85761c-1,-0.08846 -0.5,-0.70766 -0.2,-1.14995c-0.7,0.08846 -0.8,-0.26537 -1.2,-0.35383c0.2,0.35383 0.6,0.88457 -0.2,0.97303c-0.7,-0.6192 -1.4,-0.26537 -2.6,-0.6192c-0.7,0.70766 0.6,0.79612 -0.5,1.41532l0,0.00001zm-25.9,2.29989c0.3,0.08846 0.4,0.26537 0.9,0.17691c0,-0.26537 0.3,-0.35383 0.3,-0.6192c-0.8,-0.08846 -1,0.17691 -1.2,0.44229zm-9.9,0.08846c0.7,0.26537 1.6,0 2.4,-0.17691c-0.2,-0.70766 -0.8,-1.32686 0.2,-1.68069c0.4,0.26537 1.2,0 1.9,0.17691c0,-0.53074 -0.8,-0.53074 -1.2,-0.79612c0.6,-0.17691 0.4,-0.88457 1.5,-0.79612c0.1,-0.53074 -0.9,-0.17691 -0.3,-0.6192c-1.3,-0.08846 -1.2,0.97303 -3.1,0.53074c-0.4,0.6192 1.2,0 1.2,0.44229c-0.9,0.08846 -1.1,0.53074 -1.9,0.70766c0.8,0.97303 0.1,1.59223 -0.7,2.21144zm16.7,-2.21144c0.2,0.88457 2.1,0.79612 1.5,1.76915c0.4,0.35383 0.9,-0.17691 1.5,0.17691c0.1,-0.53074 0.9,-0.6192 0.9,-1.14995c-0.1,-0.08846 -0.3,-0.17691 -0.2,-0.35383c-1.7,0.26537 -2.2,-1.14995 -3.7,-0.44229l0,0.00001zm-122.7,3.09601c0.8,0 1.5,-0.08846 1.9,-0.35383c-0.5,-0.17691 -2.1,-0.70766 -1.9,0.35383zm126.9,-3.62676c0.6,0.88457 3.7,0.26537 4.3,-0.35383c0.5,1.32686 2.3,1.68069 4,2.12298c-0.4,-0.88457 0.5,-0.70766 1.1,-0.53074c0.1,-0.35383 0.4,-0.44229 0.7,-0.70766c-0.8,-0.08846 -1.4,0.08846 -1.9,0.17691c-0.8,-0.88457 -3.9,-1.32686 -5.6,-1.59223c-0.4,0.08846 0.1,0.79612 -0.7,0.6192c-0.9,0.17691 -0.2,-0.70766 -1,-0.6192c0.2,0.53074 -1,0.35383 -0.9,0.88457zm-34.9,0.70766c-0.2,0.26537 -0.1,0.88457 0.3,1.32686c0.7,-0.17691 1.7,-0.08846 1.7,-0.70766c-0.8,-0.08846 -0.7,0.26537 -1.5,0.17691c-0.3,-0.53074 0.3,-0.79612 -0.5,-0.79612l0,0.00001zm86.4,-1.94606c0.9,1.59223 -3,1.2384 -3.1,0c-0.7,0.17691 -1.2,0.44229 -1.4,0.97303c0.3,0 0.6,0 0.7,0.17691c0,0.26537 -0.3,0.35383 -0.3,0.6192c1.2,-0.17691 3.7,-0.26537 5.5,-0.35383c1.1,-0.08846 2.2,0.44229 2.2,-0.70766c-1.1,-0.08846 -1.1,0.53074 -1.9,0.53074c-0.5,-0.44229 -0.4,-1.32686 -1.7,-1.2384l0,0.00001zm-30.1,2.12298c0.8,0.08846 0.5,-0.53074 1.4,-0.35383c0.3,-1.06149 -1.4,-0.97303 0,-1.50378c-0.7,0.17691 -0.9,-0.17691 -1.4,-0.26537c-0.1,0.53074 -0.8,0.70766 -1,1.14995c0.8,0 1.3,0 1,0.97303zm21.4,-1.50378c-1.1,0 -1.9,0.17691 -2.4,0.53074c1.2,-0.35383 1.2,0.08846 2.2,0.26537c-0.2,-0.44229 0.4,-0.44229 0.2,-0.79612l0,0.00001zm-52.5,1.2384c0.7,-0.17691 0.5,0 1.4,0c0,-0.26537 0.3,-0.35383 0.3,-0.6192c-0.7,0.26537 -1.4,0.17691 -1.9,0.35383c0.2,0.08846 0.3,0.17691 0.2,0.26537zm-23.1,-0.44229c0.6,0.17691 1.6,0.53074 1.9,0c-0.9,0.08846 -0.3,-0.97303 -1.2,-0.97303c-0.4,0.17691 -0.2,0.79612 -0.7,0.97303zm12,-0.97303c0.3,-1.06149 -1.8,-0.70766 -1.4,0.17691c0.7,0.08846 0.7,-0.26537 1.4,-0.17691zm19.3,-1.14995c0.4,-0.35383 0.7,-0.70766 1,-1.14995c-1.3,-0.08846 -1.7,0.6192 -2.4,0c0.1,0.70766 -1.1,0.6192 -1,1.32686c1,0 1.3,-0.35383 2.4,-0.17691zm10.3,-0.44229c-1,0.17691 -1.1,0 -1.9,-0.17691c-0.3,0.6192 2.1,0.70766 1.9,0.17691zm90.2,-2.38835c0.3,-0.88457 2.7,-0.08846 2.9,-0.70766c-0.7,0.08846 -1.2,0.08846 -1,-0.44229c-1.3,-0.26537 -0.9,0.70766 -2.1,0.53074c-0.1,0.70766 0.1,1.2384 0.5,1.59223c1.5,-0.26537 3.4,0.08846 4.4,-1.14995c-1.4,0.08846 -1.9,0.08846 -2.9,0.53074c-0.2,-0.35383 -1.5,0.08846 -1.8,-0.35383l0,0.00002zm-431.5,1.41532c1.1,0.53074 2.2,-0.35383 3.6,-0.17691c-0.7,-0.88457 -3.3,-0.53074 -3.6,0.17691zm294.7,0c0.3,0 0.7,0 0.6,-0.35383c-0.5,-0.08846 -0.6,0.08846 -0.6,0.35383zm0,0c-0.1,0 -0.1,0 0,0l0,0c-0.1,0 -0.1,0 0,0zm78.7,0.53074c-1,0.08846 -1.6,0.6192 -2.1,0.53074c0.2,0 0.2,0.26537 0.4,0.35383c0.2,-0.53074 1.9,0 1.7,-0.88457zm25.2,0.70766c0.1,0.08846 0.3,0.08846 0.6,0.08846c-0.1,-0.17691 -0.4,-0.17691 -0.6,-0.08846zm-0.4,0c0.1,0 0.2,0 0.3,0c-0.1,-0.08846 -0.1,-0.17691 -0.1,-0.26537c0,0.08846 -0.1,0.17691 -0.2,0.26537zm-3.6,-1.50378c0.2,0.88457 0.1,1.14995 -0.7,1.50378c0.2,0.08846 0.2,0.26537 0.2,0.53074c1.5,-0.08846 2,-0.26537 3.1,0.26537c-0.3,-0.70766 0.6,-0.6192 1,-0.88457c-0.7,-0.08846 -1.4,-0.26537 -2.2,-0.17691c-0.4,-0.44229 -1,-0.70766 -1.4,-1.2384l0,-0.00001zm-7.6,5.21899c0.6,-0.17691 1.3,-0.26537 2.2,-0.17691c0.1,0.70766 1.3,0.44229 0.7,1.32686c1.9,0.53074 1.7,-0.79612 3.6,-0.70766c-0.2,0.70766 0.5,0.88457 1.2,0.97303c0.7,-0.08846 0.9,-0.53074 1.9,-0.35383c0,-0.53074 0,-0.88457 0.2,-0.97303c0.6,0.08846 1.7,-0.17691 1.9,0.17691c-0.2,0.08846 -0.5,0.08846 -0.4,0.35383c1.6,0 2.8,0.08846 3.6,0.53074c1.2,-1.94606 5.3,-1.76915 7.7,-1.85761c0.2,-0.6192 1.3,-0.70766 2.1,-0.88457c-2,-0.44229 -5.1,-0.70766 -6.5,0.08846c-0.4,-0.08846 -0.5,-0.53074 -1,-0.6192c-0.9,0.6192 -2.8,0.70766 -3.6,0.53074c0.3,0.79612 1.4,0 1.7,0.6192c-0.6,0.08846 -0.3,0.70766 -0.9,0.70766c-2.4,-0.6192 -3.9,-0.6192 -6.5,-0.08846c-2.5,-2.9191 -2.5,1.41532 -7,-0.44229c0,0.53074 -1,0.35383 -0.9,0.79612l0,0.00001zm-27.2,-3.18447c0,0.26537 -0.1,0.53074 -0.4,0.6192c-0.9,-0.35383 -1.1,0.08846 -1.9,0.17691c0.4,0.88457 -0.7,0.70766 -1.2,0.97303c1.3,1.32686 3.5,0.35383 5.3,1.06149c-0.8,-0.53074 -0.9,-1.50378 -1.8,-1.94606c0.3,0 0.7,0 1,0c0.3,-0.6192 -0.6,-0.44229 -0.5,-0.97303c0.9,-0.53074 2.9,-0.26537 3.4,-1.14995c-1.7,0.35383 -4,-0.44229 -6,0.35383c-0.5,-0.35383 -1.1,-0.70766 -1.9,-0.79612c0.1,0.6192 0.4,0.97303 -0.5,1.14995c1.9,0.08846 3.6,-0.08846 4.5,0.53074l0,0.00001zm29.6,-0.08846c-0.6,0 -0.4,-0.6192 -0.7,-0.79612c-1,-0.17691 -0.8,0 -2,0c-0.3,0.97303 1,1.59223 2,1.14995c0.3,0.6192 0.1,1.59223 1,1.76915c0.3,-0.79612 -0.3,-1.2384 0.5,-1.68069c1.2,0.44229 1.9,-0.6192 3.3,-0.17691c-0.4,-0.53074 -0.3,-0.70766 -0.5,-1.14995c-0.8,0.17691 -0.6,-0.44229 -1.4,-0.35383c-0.2,0.35383 -0.8,0.44229 -1.2,0.70766c0.1,-0.44229 -0.6,-0.35383 -0.9,-0.6192c-0.2,0.6192 1,0.97303 -0.1,1.14995l0,-0.00001zm-210.9,5.74974c0,0.35383 0,0.79612 0,1.14995c0.3,0 0.5,0 0.7,0c0.2,-0.6192 -0.3,-0.88457 -0.7,-1.14995zm43.9,0c0.6,1.06149 2.2,0 3.4,0c0.2,0.35383 2.3,0.6192 2.1,-0.17691c-1.8,-0.26537 -4,0.26537 -5.5,0.17691zm-198.1,0.97303c0.4,0.26537 0.8,0.44229 1.7,0.35383c0.1,-0.6192 -0.1,-1.06149 -0.7,-1.14995c-0.4,0.26537 -0.8,0.44229 -1,0.79612zm-50.1,0.6192c0.3,-0.53074 0.8,-0.53074 1.5,-0.35383c0.2,-1.14995 -2.3,0 -1.5,0.35383zm96.6,-2.03452c-0.2,0 -0.5,0 -0.7,0c-0.1,0.44229 0,0.70766 0.7,0.6192c0,-0.17691 0,-0.44229 0,-0.6192zm1,-0.17691c0,-0.08846 0,-0.26537 0,-0.35383c0.2,0 0.6,0 0.9,0c0.1,-0.44229 -0.4,-0.26537 0,-0.6192c-0.7,0.08846 -1.9,-0.17691 -1.9,0.35383c1.1,-0.08846 -0.4,0.70766 1,0.6192zm-81.9,0.70766c0.4,0.53074 1,-0.17691 1.7,0c0,-0.17691 0,-0.35383 0,-0.6192c-1,-0.08846 -1.5,0.17691 -1.7,0.6192zm-67.2,-2.03452c-0.2,1.06149 0.2,1.85761 1.7,1.76915c0.1,-0.26537 0.3,-0.35383 0.4,-0.6192c-0.8,-0.26537 -1.4,-0.79612 -2.1,-1.14995zm105.9,-0.17691c0,0.08846 0,0.26537 0,0.35383c0.5,0.35383 0.5,-0.08846 1.2,0c0.1,-0.70766 -0.6,-0.44229 -1.2,-0.35383zm-228.8,2.74218c2.1,-0.35383 3.7,-0.35383 5.6,0.26537c-0.1,-0.53074 0.1,-1.06149 -0.3,-1.32686c-2,-0.35383 -2.7,0.97303 -3.8,0c-0.1,0.6192 -1.2,0.44229 -1.5,1.06149zm231,-3.62676c-0.5,0.35383 -0.2,1.06149 0.5,1.14995c0.1,-0.26537 0.9,-0.08846 0.7,-0.6192c-0.2,-0.35383 -0.7,-0.44229 -1.2,-0.53074l0,-0.00001zm-81,1.76915c0.3,0.08846 0.5,0.26537 1,0.17691c0.1,-0.26537 0.3,-0.44229 0.5,-0.70766c-0.8,0 -1.2,0.17691 -1.5,0.53074l0,0.00001zm117.6,-1.41532c0.5,0.08846 1,0.35383 1.4,0c0.1,-0.53074 -0.5,-0.53074 -1.2,-0.53074c0,0.26537 -0.1,0.35383 -0.2,0.53074zm-124.5,0.79612c-0.1,0.35383 0,0.6192 0.5,0.70766c0.1,-0.26537 0.3,-0.35383 0.2,-0.70766c-0.2,0 -0.5,0 -0.7,0zm3.9,0.44229c0.8,0.08846 0.4,-0.79612 1.6,-0.53074c0,-0.44229 0.6,-0.53074 0.5,-0.97303c-1.2,0.26537 -1.8,0.79612 -2.1,1.50378l0,-0.00001zm-8.3,0.08846c1.7,-0.26537 3.4,-0.53074 4.6,-1.06149c-0.5,-0.35383 -0.8,-0.70766 -0.5,-1.14995c-0.7,0 -0.5,0.53074 -1.2,0.53074c0.1,-0.44229 -0.1,-0.70766 -0.7,-0.6192c0.3,1.50378 -1.5,1.50378 -2.2,2.29989l0,0.00001zm-83.8,0.79612c1.3,-0.17691 3.6,0.70766 3.6,-0.53074c-1.2,0.70766 -2.6,-0.17691 -3.1,-0.17691c0.8,0.26537 -0.4,0.53074 -0.5,0.70766l0,-0.00001zm15.2,-0.70766c0,0.17691 0,0.26537 0,0.35383c0.2,0 0.2,0.17691 0.4,0.17691c0,-0.26537 0.7,-0.08846 0.8,-0.35383c-0.3,-0.17691 -0.6,-0.17691 -1.2,-0.17691zm429.9,-4.59979c1.6,0.26537 2.9,-0.70766 3.4,0.79612c-0.3,0.17691 -1,0.26537 -1.2,0.53074c0.5,0.08846 0.6,0.44229 1,0.6192c-1,0.44229 0.2,1.06149 -0.9,1.85761c0.2,0.08846 0.4,0.17691 0.3,0.35383c0.3,0 0.6,0 0.9,0c0,-0.44229 0.1,-0.70766 0.5,-0.70766c0.5,0.26537 1.5,0.35383 2.6,0.26537c-0.2,-0.44229 0.5,-0.26537 0.5,-0.6192c-0.3,-0.26537 -1,-0.26537 -1.2,-0.53074c0.4,-0.17691 0.4,-0.6192 0.7,-0.79612c0.6,0.08846 1.8,-0.26537 2,0.08846c-1.6,0.08846 1.3,0.97303 -0.2,1.68069c1,-0.08846 0.8,-0.08846 1.2,0.35383c-0.2,-0.88457 1.3,-0.6192 1.9,-0.88457c-0.3,-0.08846 -0.6,-0.26537 -0.7,-0.53074c0.4,-0.17691 0.6,-0.44229 1.4,-0.35383c0.1,-0.35383 -0.3,-0.44229 -0.7,-0.6192c-0.2,0.44229 -1.4,1.06149 -2.1,0.70766c0,-0.08846 0,-0.26537 0,-0.35383c0.2,0 0.6,0 0.9,0c0.5,-1.2384 -1.9,-0.53074 -2,-1.41532c0.9,0.08846 1.6,-0.26537 2.4,-0.70766c-0.9,-0.35383 -1,-1.41532 -2.5,-1.41532c0.1,0.35383 -0.3,0.35383 -0.5,0.53074c0.3,0.08846 0.6,0.08846 0.5,0.35383c-0.5,0 -0.9,-0.08846 -1.2,-0.17691c0.6,0.6192 -0.4,0.6192 -0.9,0.35383c-0.1,0.26537 -0.2,0.53074 -0.5,0.6192c-0.6,0 -1.3,-0.17691 -1.9,-0.35383c0,-0.08846 0,-0.08846 0,-0.08846c-0.9,-0.08846 -1.1,-0.70766 -2.2,-0.6192c-0.3,0.35383 -0.1,0.53074 0.1,0.70766c-0.6,0.08846 -1.3,0 -1.6,0.35383l0,-0.00001zm-367.6,2.65372c-0.1,0.70766 1.1,0.53074 1.2,1.14995c-0.5,0 -0.9,0.08846 -0.9,0.35383c1.8,0.6192 3,-0.53074 2.1,-1.68069c-0.9,-0.08846 -1.3,0.26537 -2.4,0.17691zm-21.9,-0.53074c1.8,-0.17691 3.3,0.08846 3.9,1.06149c-0.7,-0.35383 -1.4,-0.26537 -1.9,0.17691c0.6,0.26537 0.5,0.88457 1,1.14995c1.2,-0.35383 1.7,-0.26537 2.9,0c-0.2,-0.44229 -0.3,-0.53074 0.2,-0.79612c-0.4,-0.35383 -1.4,-0.08846 -1.9,0c1.2,-0.6192 -0.1,-0.97303 0.5,-1.85761c-1,-0.08846 -0.5,-0.70766 -0.2,-1.14995c-0.7,0.08846 -0.8,-0.26537 -1.2,-0.35383c0.2,0.35383 0.6,0.88457 -0.2,0.97303c-0.7,-0.6192 -1.4,-0.26537 -2.6,-0.6192c-0.7,0.70766 0.6,0.79612 -0.5,1.41532l0,0.00001zm-25.9,2.29989c0.3,0.08846 0.4,0.26537 0.9,0.17691c0,-0.26537 0.3,-0.35383 0.3,-0.6192c-0.8,-0.08846 -1,0.17691 -1.2,0.44229zm-10,0.08846c0.7,0.26537 1.6,0 2.4,-0.17691c-0.2,-0.70766 -0.8,-1.32686 0.2,-1.68069c0.4,0.26537 1.2,0 1.9,0.17691c0,-0.53074 -0.8,-0.53074 -1.2,-0.79612c0.6,-0.17691 0.4,-0.88457 1.5,-0.79612c0.1,-0.53074 -0.9,-0.17691 -0.3,-0.6192c-1.3,-0.08846 -1.2,0.97303 -3.1,0.53074c-0.4,0.6192 1.2,0 1.2,0.44229c-0.9,0.08846 -1.1,0.53074 -1.9,0.70766c0.9,0.97303 0.2,1.59223 -0.7,2.21144zm16.8,-2.21144c0.2,0.88457 2.1,0.79612 1.5,1.76915c0.4,0.35383 0.9,-0.17691 1.5,0.17691c0.1,-0.53074 0.9,-0.6192 0.9,-1.14995c-0.1,-0.08846 -0.3,-0.17691 -0.2,-0.35383c-1.7,0.26537 -2.2,-1.14995 -3.7,-0.44229l0,0.00001zm4.2,-0.53074c0.6,0.88457 3.7,0.26537 4.3,-0.35383c0.5,1.32686 2.3,1.68069 4,2.12298c-0.4,-0.88457 0.5,-0.70766 1.1,-0.53074c0.1,-0.35383 0.4,-0.44229 0.7,-0.70766c-0.8,-0.08846 -1.4,0.08846 -1.9,0.17691c-0.8,-0.88457 -3.9,-1.32686 -5.6,-1.59223c-0.4,0.08846 0.1,0.79612 -0.7,0.6192c-0.9,0.17691 -0.2,-0.70766 -1,-0.6192c0.1,0.53074 -1,0.35383 -0.9,0.88457zm-35,0.70766c-0.2,0.26537 -0.1,0.88457 0.3,1.32686c0.7,-0.17691 1.7,-0.08846 1.7,-0.70766c-0.8,-0.08846 -0.7,0.26537 -1.5,0.17691c-0.2,-0.53074 0.4,-0.79612 -0.5,-0.79612l0,0.00001zm86.5,-1.94606c0.9,1.59223 -3,1.2384 -3.1,0c-0.7,0.17691 -1.2,0.44229 -1.4,0.97303c0.3,0 0.6,0 0.7,0.17691c0,0.26537 -0.3,0.35383 -0.3,0.6192c1.2,-0.17691 3.7,-0.26537 5.5,-0.35383c1.1,-0.08846 2.2,0.44229 2.2,-0.70766c-1.1,-0.08846 -1.1,0.53074 -1.9,0.53074c-0.5,-0.44229 -0.4,-1.32686 -1.7,-1.2384l0,0.00001zm-30.1,2.12298c0.8,0.08846 0.5,-0.53074 1.4,-0.35383c0.3,-1.06149 -1.4,-0.97303 0,-1.50378c-0.7,0.17691 -0.9,-0.17691 -1.4,-0.26537c-0.1,0.53074 -0.8,0.70766 -1,1.14995c0.7,0 1.2,0 1,0.97303zm21.4,-1.50378c-1.1,0 -1.9,0.17691 -2.4,0.53074c1.2,-0.35383 1.2,0.08846 2.2,0.26537c-0.2,-0.44229 0.3,-0.44229 0.2,-0.79612l0,0.00001zm-52.5,1.2384c0.7,-0.17691 0.5,0 1.4,0c0,-0.26537 0.3,-0.35383 0.3,-0.6192c-0.7,0.26537 -1.4,0.17691 -1.9,0.35383c0.2,0.08846 0.3,0.17691 0.2,0.26537zm-64.3,0c-0.5,-0.08846 -0.7,-0.6192 -1.7,-0.44229c0,0.44229 -0.7,0.70766 -1.1,0.35383c0,0.08846 0,0.26537 0,0.44229c0,0.08846 0,0.17691 0.2,0.17691c0.4,-0.26537 2.4,0.17691 2.6,-0.53074zm41.2,-0.44229c0.6,0.17691 1.6,0.53074 1.9,0c-0.9,0.08846 -0.3,-0.97303 -1.2,-0.97303c-0.4,0.17691 -0.3,0.79612 -0.7,0.97303zm12,-0.97303c0.3,-1.06149 -1.8,-0.70766 -1.4,0.17691c0.7,0.08846 0.7,-0.26537 1.4,-0.17691zm19.3,-1.14995c0.4,-0.35383 0.7,-0.70766 1,-1.14995c-1.2,-0.08846 -1.7,0.6192 -2.4,0c0.1,0.70766 -1.1,0.6192 -1,1.32686c1,0 1.3,-0.35383 2.4,-0.17691zm10.3,-0.44229c-1,0.17691 -1.1,0 -1.9,-0.17691c-0.4,0.6192 2.1,0.70766 1.9,0.17691zm90.2,-2.38835c0.3,-0.88457 2.7,-0.08846 2.9,-0.70766c-0.7,0.08846 -1.2,0.08846 -1,-0.44229c-1.3,-0.26537 -0.9,0.70766 -2.1,0.53074c-0.1,0.70766 0.1,1.2384 0.5,1.59223c1.5,-0.26537 3.4,0.08846 4.4,-1.14995c-1.4,0.08846 -1.9,0.08846 -2.9,0.53074c-0.2,-0.35383 -1.5,0.08846 -1.8,-0.35383l0,0.00002zm-136.9,1.41532l0,0l0,0l0,0zm0.1,0c0.3,0 0.7,0 0.6,-0.35383c-0.6,-0.08846 -0.6,0.08846 -0.6,0.35383zm78.7,0.53074c-1,0.08846 -1.6,0.6192 -2.1,0.53074c0.2,0 0.2,0.26537 0.4,0.35383c0.2,-0.53074 1.8,0 1.7,-0.88457zm21.2,-0.79612c0.2,0.88457 0.1,1.14995 -0.7,1.50378c0.2,0.08846 0.2,0.26537 0.2,0.53074c1.5,-0.08846 2,-0.26537 3.1,0.26537c-0.3,-0.70766 0.6,-0.6192 1,-0.88457c-0.7,-0.08846 -1.4,-0.26537 -2.2,-0.17691c-0.4,-0.44229 -1.1,-0.70766 -1.4,-1.2384l0,-0.00001zm3.6,1.50378c0.1,0 0.2,0 0.3,0c-0.1,-0.08846 -0.1,-0.17691 -0.1,-0.26537c0,0.08846 -0.1,0.17691 -0.2,0.26537zm0.3,0c0.1,0.08846 0.3,0.08846 0.6,0.08846c0,-0.17691 -0.3,-0.17691 -0.6,-0.08846zm-185.5,-2.21144l0,0.44229c0.2,-0.17691 0.6,-0.17691 0.6,-0.44229c-0.1,-0.08846 -0.4,0 -0.6,0zm174,5.83819c0.6,-0.17691 1.3,-0.26537 2.2,-0.17691c0.1,0.70766 1.3,0.44229 0.7,1.32686c1.9,0.53074 1.7,-0.79612 3.6,-0.70766c-0.2,0.70766 0.5,0.88457 1.2,0.97303c0.7,-0.08846 0.9,-0.53074 1.9,-0.35383c0,-0.53074 0,-0.88457 0.2,-0.97303c0.6,0.08846 1.7,-0.17691 1.9,0.17691c-0.2,0.08846 -0.5,0.08846 -0.4,0.35383c1.6,0 2.8,0.08846 3.6,0.6192c1.2,-1.94606 5.3,-1.76915 7.7,-1.85761c0.2,-0.6192 1.3,-0.70766 2.1,-0.88457c-2,-0.44229 -5.1,-0.70766 -6.5,0.08846c-0.4,-0.08846 -0.5,-0.53074 -1,-0.6192c-0.9,0.6192 -2.8,0.70766 -3.6,0.53074c0.3,0.79612 1.4,0 1.7,0.6192c-0.6,0.08846 -0.3,0.70766 -0.9,0.70766c-2.4,-0.6192 -3.9,-0.6192 -6.5,-0.08846c-2.5,-2.9191 -2.5,1.41532 -7,-0.44229c0,0.53074 -1,0.35383 -0.9,0.70766l0,0.00001zm-27.2,-3.09601c0,0.26537 -0.1,0.53074 -0.4,0.6192c-0.9,-0.35383 -1.1,0.08846 -1.9,0.17691c0.4,0.88457 -0.7,0.70766 -1.2,0.97303c1.3,1.32686 3.5,0.35383 5.3,1.06149c-0.8,-0.53074 -0.9,-1.50378 -1.8,-1.94606c0.3,0 0.7,0 1,0c0.3,-0.6192 -0.6,-0.44229 -0.5,-0.97303c0.9,-0.53074 2.9,-0.26537 3.4,-1.14995c-1.7,0.35383 -4,-0.44229 -6,0.35383c-0.5,-0.35383 -1.1,-0.70766 -1.9,-0.79612c0.1,0.6192 0.4,0.97303 -0.5,1.14995c1.9,0.08846 3.6,-0.08846 4.5,0.53074l0,0.00001zm-146.8,1.32686l0,1.50378c0.2,0.26537 0.7,0.35383 0.5,0.79612c1.5,0.97303 2,-0.17691 4.4,0.17691c-0.3,-0.88457 0.2,-1.14995 1.1,-0.88457c0,-0.35383 -0.4,-0.44229 -0.2,-0.97303c-0.9,0 -1.3,-0.26537 -1.5,-0.79612c-1.4,0.35383 -3,0.08846 -4.3,0.17691zm86.6,-1.41532c1.6,0.26537 2.9,-0.70766 3.4,0.79612c-0.3,0.17691 -1,0.26537 -1.2,0.53074c0.5,0.08846 0.6,0.44229 1,0.6192c-1,0.44229 0.2,1.06149 -0.9,1.85761c0.2,0.08846 0.4,0.17691 0.3,0.35383c0.3,0 0.6,0 0.9,0c0,-0.44229 0.1,-0.70766 0.5,-0.70766c0.5,0.26537 1.5,0.35383 2.6,0.26537c-0.2,-0.44229 0.5,-0.26537 0.5,-0.6192c-0.3,-0.26537 -1,-0.26537 -1.2,-0.53074c0.4,-0.17691 0.4,-0.6192 0.7,-0.79612c0.6,0.08846 1.8,-0.26537 2,0.08846c-1.6,0.08846 1.3,0.97303 -0.2,1.68069c1,-0.08846 0.8,-0.08846 1.2,0.35383c-0.2,-0.88457 1.3,-0.6192 1.9,-0.88457c-0.3,-0.08846 -0.6,-0.26537 -0.7,-0.53074c0.4,-0.17691 0.6,-0.44229 1.4,-0.35383c0.1,-0.35383 -0.3,-0.44229 -0.7,-0.6192c-0.2,0.44229 -1.4,1.06149 -2.1,0.70766c0,-0.08846 0,-0.26537 0,-0.35383c0.2,0 0.6,0 0.9,0c0.5,-1.2384 -1.9,-0.53074 -2,-1.41532c0.9,0.08846 1.6,-0.26537 2.4,-0.70766c-0.9,-0.35383 -1,-1.41532 -2.5,-1.41532c0.1,0.35383 -0.3,0.35383 -0.5,0.53074c0.3,0.08846 0.6,0.08846 0.5,0.35383c-0.5,0 -0.9,-0.08846 -1.2,-0.17691c0.6,0.6192 -0.4,0.6192 -0.9,0.35383c-0.1,0.26537 -0.2,0.53074 -0.5,0.6192c-2,-0.26537 -4.2,-1.50378 -5.6,0l0,-0.00001zm90.3,-0.79612c0.9,-0.08846 1.6,-0.08846 1.9,-0.53074c-0.5,-0.08846 -0.2,-0.6192 -0.7,-0.70766c-0.3,0.44229 -1.2,0.53074 -1.2,1.14995c-0.2,-0.08846 -0.3,-0.08846 -0.4,-0.17691c-0.2,0.6192 1,0.97303 0,1.14995c-0.6,0 -0.4,-0.6192 -0.7,-0.79612c-1,-0.17691 -0.8,0 -2,0c-0.3,0.97303 1,1.59223 2,1.14995c0.3,0.6192 0.1,1.59223 1,1.76915c0.3,-0.79612 -0.3,-1.2384 0.5,-1.68069c1.2,0.44229 1.9,-0.6192 3.3,-0.17691c-0.4,-0.53074 -0.3,-0.70766 -0.5,-1.14995c-0.8,0.17691 -0.6,-0.44229 -1.4,-0.35383c-0.2,0.35383 -0.8,0.44229 -1.2,0.70766c0,-0.35383 -0.3,-0.44229 -0.6,-0.35383l0,-0.00002zm1743.1,-0.79612l0,-5.13053l-1920,0l0,3.5383c2,-0.08846 4.1,0.6192 5.9,-0.08846c0.2,0.17691 0.3,0.44229 0.2,0.79612c-1.7,0 -3.5,-0.26537 -3.5,1.50378c0.3,0 0.8,-0.08846 0.9,0.17691c-0.2,0.79612 -2,0.79612 -3.5,0.44229l0,0.88457c1.4,-0.08846 2.6,-0.17691 4.1,0.08846c0.9,-0.70766 2.7,-1.68069 4.3,-1.14995c-0.3,0.6192 -1.9,0.35383 -1.9,1.14995c2.4,-0.6192 6,0.53074 9.4,-0.08846c-0.6,0 0.9,-1.2384 0.9,-1.2384c0.8,-0.17691 2.4,-0.26537 2.4,0.97303c-0.9,0 -1.8,0.08846 -2.4,0.35383c3,-0.08846 7.3,0.79612 10.3,-0.08846c0.2,0 0.4,0 0.6,0.08846c0.3,0.35383 1.1,0.35383 1.6,0.6192c-3.3,0.44229 -8.9,0 -12,0.08846c-0.3,0.53074 -0.9,0.79612 -1.6,1.14995c-0.2,-0.6192 0.6,-0.44229 0.5,-0.97303c-1.3,-0.53074 -2,0.08846 -3.9,-0.26537c-0.5,0.08846 0,0.70766 -0.5,0.79612c-0.7,-0.17691 -1.6,-1.06149 -2.4,-0.6192c0.6,0 0,0.70766 -0.2,0.79612c-0.9,-0.08846 -1.2,0.17691 -1.7,0.35383c0,-0.53074 -0.5,-0.70766 -0.3,-1.32686c-0.4,0 -0.8,0 -1.2,0c0.3,0.79612 1,1.2384 1.5,1.94606c-0.2,0.17691 -0.8,0.17691 -1.4,0.17691c0.3,1.06149 1.9,0 2.6,0.35383c0.7,0.97303 2.9,0.88457 4.4,0.44229c4.7,0.97303 10.2,0.08846 13.7,0.35383c-0.2,-0.44229 -1.1,-0.44229 -1,-1.14995c0.7,-0.35383 1.4,0 2,0.17691c0.4,-0.44229 0.2,-1.2384 1.1,-1.32686c0.1,0.6192 1.8,0.26537 2.4,0.6192c0.1,0.35383 0,0.53074 -0.4,0.6192c-0.9,-0.6192 -2.2,0 -3.4,0.17691c-0.3,0.35383 0.2,0.6192 -0.5,0.97303c3.7,0.6192 7.2,0 11.3,0.53074c0.3,0.53074 -0.1,0.6192 -0.4,0.79612c0.6,-0.17691 1.3,0.53074 1.7,0c-0.7,0 -0.8,-0.26537 -0.8,-0.70766c1,-0.88457 2,-0.6192 3.6,-0.35383c0.2,-0.6192 1.3,-0.70766 1.4,-1.32686c-0.7,-0.08846 -0.3,0.6192 -0.9,0.53074c-0.9,-0.6192 -2.3,-0.97303 -3.6,-0.26537c0,-0.79612 -2,-0.08846 -1.9,-0.97303c1.3,-0.08846 3.1,0.17691 2.9,-0.88457c-0.8,-0.17691 -1.4,0.17691 -2.2,-0.26537c0,-0.26537 -0.1,-0.6192 0.2,-0.6192c1.8,0.26537 3.2,-0.08846 4.6,-0.53074c1.8,0.79612 6.1,-0.17691 7.2,1.06149c-1.1,0.26537 -3,0.08846 -4.1,0.35383c0,0.26537 0,0.53074 0,0.79612c0.3,0.44229 0.8,-0.17691 0.9,0.17691c-0.3,0.44229 -1.7,0.26537 -1.6,0.97303c0.7,-0.08846 0.5,0.35383 0.8,0.6192c4.6,-0.08846 10.7,-0.08846 14.6,-0.53074c-0.3,-0.70766 -0.2,-1.2384 -1,-1.14995c0.5,-0.70766 1.4,-1.68069 0.2,-2.12298c2.2,-0.08846 3,-0.53074 5.3,-0.26537c-0.4,0.70766 -1.5,0.88457 -2.4,1.14995c0.5,0.70766 -0.4,0.79612 0,1.14995c0.1,-0.53074 1.6,-0.26537 2.1,-0.53074c0.3,0.08846 0.1,0.6192 0.5,0.6192c0,-0.53074 0.7,-0.44229 1,-0.70766c0.1,0.08846 0.5,0.88457 0,0.97303c-1.7,-0.70766 -2.2,0.6192 -3.8,0.17691c0.7,1.68069 4.1,-0.17691 6.3,0.44229c0.4,-0.26537 -0.2,-0.88457 0,-1.50378c0.4,0.08846 1.2,-0.17691 1.2,0.17691c-0.6,0.70766 -0.4,1.41532 0.3,2.12298c-0.6,0 -0.8,0.26537 -1,0.53074c1.4,-0.17691 1.7,0 2.9,0.17691c0.8,-3.5383 8.7,-0.6192 11.1,-1.41532c-1.2,-0.08846 0.2,-0.26537 0.4,-0.35383c0.2,-0.44229 -0.6,-0.26537 -0.1,-0.6192c0.3,0 0.6,0 0.7,-0.17691c-0.4,-0.08846 -0.9,-0.08846 -0.7,-0.6192c1.1,-0.08846 1.2,-0.44229 2.4,-0.17691c-0.2,-0.79612 0.7,-0.88457 0.4,-1.76915c-0.7,-0.08846 -1,-0.53074 -1.7,-0.6192c-0.5,0.26537 -0.1,0.6192 0,0.97303c-1.2,-0.17691 -0.4,0.70766 -1.2,0.70766c0.2,-1.14995 -1.6,0.17691 -1.9,-0.44229c-0.4,-0.97303 1.5,-0.44229 1.9,-0.97303c-0.6,0 0.3,-0.26537 0,-0.6192c-0.6,-0.26537 -1.3,0.08846 -1.7,-0.44229c0,0.08846 -0.2,0.17691 -0.5,0.26537c-0.9,-0.08846 -0.9,-0.08846 -1.6,0.17691c0.2,-0.26537 0.8,-0.44229 0,-0.6192c-0.8,0.17691 -1.6,0.35383 -2.4,0.53074c0,0.35383 0.2,0.70766 0.7,0.79612c-0.1,-0.35383 0,-0.6192 0.4,-0.6192c2,-0.08846 0.9,0.97303 1,1.59223c-1.4,-0.17691 -2.9,0.70766 -3.6,-0.08846c0.5,-0.26537 -1.7,-2.29989 1.2,-2.29989c-1.7,-1.59223 1.8,-1.59223 3.6,-2.03452c0,0.79612 0.8,1.41532 1.7,1.14995c0.2,0.53074 0.5,0.97303 1.2,1.14995c0.3,-0.26537 0.9,-0.44229 0.9,-0.97303c-1.1,0.17691 -1.6,-1.41532 -0.3,-1.32686c0.2,0.6192 0.7,0.88457 1,1.32686c4.3,0.08846 8.6,0.97303 12.1,-0.08846c-0.4,0.53074 0.7,0.08846 0.7,0.44229c-0.6,0.26537 -1,0.6192 -1,1.32686c0.4,0.08846 1,-0.44229 1.2,0c0.4,0.53074 -1.1,0 -0.7,0.6192c0.1,0.08846 0.3,0.17691 0.2,0.35383c1.5,-0.17691 2.8,-0.26537 4.1,0.08846c-0.2,-0.97303 1.5,-0.70766 1.9,-1.32686c0.5,0.35383 0.8,1.14995 1.9,0.6192c-1.3,0.70766 0.9,1.14995 0.3,1.68069c-0.6,0 -1.6,-0.44229 -1.9,0.17691c0.9,-0.08846 1.5,0.08846 1.7,0.44229c0.1,0.53074 -1,0.26537 -0.9,0.79612c0.4,0.44229 1.2,-0.35383 2.1,-0.17691c0,0.17691 0,0.35383 0,0.6192c0.9,0.26537 1.4,-0.17691 2.2,-0.35383c-0.7,-0.26537 -0.9,-1.06149 -0.6,-1.59223c0.1,0 0.2,0.08846 0.3,0.26537c1.6,0.08846 2.1,-0.6192 3.8,-0.35383c-0.1,-0.6192 0.6,-1.14995 1.9,-0.79612c-0.2,-0.88457 -2.2,-0.17691 -1.5,-0.97303c-0.9,0.53074 -1.4,0 -1.9,-0.6192c3.4,-1.06149 8.2,-0.44229 12.5,0c-0.1,0.08846 -0.3,0 -0.3,0.17691c0.5,-0.08846 0.8,-0.17691 1.2,-0.08846c0.8,0.08846 1.8,0.26537 2.5,0.26537c-0.3,-0.44229 -0.2,-0.79612 0.5,-0.97303c0,0.88457 1.4,0.79612 2.2,1.14995c0.2,-0.35383 0.4,-0.70766 1.2,-0.70766c0,1.32686 -0.5,1.50378 -0.7,2.9191c1.1,0.44229 1.8,0.6192 3.1,0.26537c0.6,0.26537 -0.4,0.53074 0.5,0.53074c0.3,-0.08846 0.7,0 0.7,-0.17691c-0.6,-0.08846 0.4,-0.26537 0.3,-0.53074c-1.1,-0.53074 -2.5,-0.44229 -3.4,-0.79612c0.5,-0.79612 2.3,-1.32686 3.6,-1.06149c0.1,-3.5383 6,-0.53074 8.4,-2.21144c1.7,0.79612 7.1,0.53074 9.8,0.26537c0.1,0.26537 0.5,0.35383 0.5,0.79612c-0.7,0.17691 -1.4,0.35383 -2.1,0.53074c-0.2,1.06149 1.8,0.6192 1.5,1.76915c-1.6,-0.08846 -2.6,0.17691 -4.1,0.17691c1.5,1.06149 2.6,2.38835 4.2,3.36138c-0.3,-0.70766 0,-0.88457 -0.3,-1.50378c0,-0.26537 2,-0.08846 1.2,-0.35383c-0.7,-0.08846 -1.9,0.17691 -2.2,-0.17691c0,-0.17691 0,-0.35383 0,-0.6192c1.1,-0.44229 2.2,-0.26537 3.1,0.17691c0.5,-0.44229 0.8,-0.88457 0.7,-1.68069c1.5,-0.35383 2.6,-0.79612 2.9,-1.85761c0.1,-0.53074 -0.9,-0.17691 -0.7,-0.70766c0.8,-0.26537 1.8,-0.44229 2.6,0.17691c-0.2,0.17691 -0.2,0.35383 -0.2,0.53074c-0.1,0 -0.1,-0.08846 -0.4,0c0.2,0.53074 -0.4,0.44229 -0.5,0.79612c0.5,-0.17691 1,-0.17691 1.2,-0.35383c0.2,0.17691 0.4,0.44229 -0.1,0.79612c1.4,-0.08846 2.7,0.26537 3.9,0.6192c-0.6,0.08846 -1.4,0.08846 -1.4,0.53074c0.3,0.88457 2,0.6192 2.9,0.97303c0.4,-0.88457 1,-1.76915 1.6,-2.47681c0.3,0.88457 1.5,0.08846 1.9,0.17691c-0.6,0 -0.4,-0.70766 -0.5,-1.14995c-0.5,0 -0.8,-0.08846 -0.9,-0.35383c-0.8,-1.14995 1.8,-1.32686 2.1,-0.70766c-0.2,0.53074 0,0.70766 -0.7,1.14995c2,-0.35383 2.8,-1.50378 3.8,-2.47681c0.7,0.26537 0.6,1.14995 1.7,1.14995c0.3,-0.53074 0.2,-1.14995 1,-1.32686c1.4,-0.26537 4.1,-0.6192 3.9,1.41532c-0.6,0 -1,0.08846 -1,0.35383c1.3,0.17691 1.3,-0.44229 2.2,-0.53074c0.1,-0.26537 -0.3,-0.26537 -0.5,-0.44229c1.1,-1.14995 2.1,-2.47681 5,-2.47681c0.3,0.79612 1.3,1.2384 2.2,1.14995c-1.5,1.06149 2.3,1.14995 1.5,1.94606c2,-0.17691 5.4,-0.08846 6.3,1.41532c-0.1,0.26537 -0.3,0.44229 -0.5,0.53074c-1.3,0.17691 -1.5,-0.35383 -1.9,-0.79612c-0.9,0.44229 -2.8,0 -4,0.44229c0,-0.26537 0.3,-0.35383 0.3,-0.6192c-0.5,0.08846 -0.3,-0.44229 -1,-0.26537c-0.1,0.17691 -0.3,0.35383 -0.5,0.6192c0.5,0.08846 0.5,0.44229 1.1,0.35383c-0.5,0.17691 -0.8,0.53074 -0.9,1.14995c1,0.26537 1.7,0.44229 2.6,0c0.2,0.70766 0.6,0.26537 1.7,0.44229c0.7,-0.08846 0.6,-0.79612 1.4,-0.79612c3.2,1.14995 6.4,1.41532 10.1,1.50378c0,0.44229 0.2,0.97303 0.5,1.59223c-0.2,0.35383 -0.4,0.6192 -1.2,0.53074c-0.3,-0.97303 -0.8,-1.76915 -2,-2.12298c-0.3,0.53074 -1.2,0.6192 -1.9,0.88457c0.4,0.08846 0.9,0.35383 0.5,0.6192c-0.8,0.26537 -0.2,-0.44229 -1,-0.26537c0.6,0.88457 -0.8,0.53074 -0.2,1.41532c-0.5,0.08846 -1.8,0.53074 -1.9,0c-0.1,-0.44229 1.1,0 0.7,-0.53074c-0.3,-0.17691 -1.9,-0.35383 -2.2,0c0.9,-0.08846 0.8,0.6192 1,0.97303c-0.6,-0.08846 -0.8,-0.26537 -1.2,0.17691c0.3,0.08846 0.7,0.17691 0.7,0.6192c-0.7,0.26537 -1.7,0.44229 -2.1,0.97303c0.8,0.53074 1.4,-0.44229 2.1,-0.53074c0.2,0 0.8,0.35383 1,0.35383c0.5,-0.08846 0.7,-0.53074 0.9,-0.53074c0.3,0 0.9,0.53074 1.2,0.53074c2,0 4.5,-1.68069 6.3,-0.44229c0,-0.17691 0,-0.35383 0,-0.6192c0.8,0 1.3,-0.35383 1.7,0.17691c0.4,-0.26537 0.2,-0.88457 0.2,-1.32686c0.9,0.26537 0.5,-0.17691 1.2,-0.35383c0.2,0.44229 -0.3,0.44229 -0.2,0.79612c0.9,0 1,-0.44229 0.7,-0.97303c2.5,-0.53074 1.6,-2.29989 3.6,-3.27293c1,-0.26537 1.2,0.26537 1.9,0.26537c-0.3,-0.70766 0.5,-1.14995 0,-1.50378c1,-0.70766 2.8,-0.88457 3.3,-1.85761c-0.4,-0.08846 -1,0.44229 -1.2,0c0.4,-0.44229 0.5,-0.97303 1,-1.32686c0.4,0.08846 0.3,0.6192 1.2,0.44229c0.5,-1.14995 5.3,-0.79612 5.5,0.08846c0.1,0 0.4,0 0.5,-0.08846c0.7,0.26537 1.5,0.35383 2.5,0.08846c0.2,-0.44229 -0.2,-0.44229 -0.4,-0.53074c0.1,-0.08846 0.2,-0.08846 0.3,-0.08846c0.6,0 1.2,0 1.1,0.44229c0.5,0 1.1,0 1.4,0.17691c0,-0.26537 -0.1,-0.53074 0.2,-0.53074c0,0.08846 0,0.26537 0,0.44229c0.5,0.08846 0.7,-0.08846 1,-0.08846c0.1,0.17691 0,0.26537 0.2,0.35383c1,0 1.5,-0.26537 2.1,-0.53074c0.1,-0.44229 -0.7,-0.79612 0.2,-0.97303c1,0.26537 0.2,0.79612 0.7,1.32686c0.8,-0.35383 2.1,-0.44229 2,0.6192c-0.7,0.17691 -1.1,-0.53074 -1,0.17691c0.9,0.08846 1.5,0.08846 2.4,-0.17691c-0.3,-0.44229 -0.3,-0.97303 0.2,-1.32686c0.9,-0.17691 0.9,0.26537 1.7,0.26537c0.1,-0.79612 1.4,-0.88457 2,-1.41532c0.2,0 0.2,-0.08846 0.4,-0.08846c0.4,0.26537 0.3,0.88457 0.2,1.50378c-0.1,0.08846 0,0.26537 -0.3,0.35383c-0.3,-0.26537 -0.6,-0.44229 -0.9,-0.6192c-0.9,0.70766 -1.7,1.14995 -3.1,1.14995c0.4,0.79612 -0.6,0.70766 -0.6,1.32686c-0.1,0.08846 -0.2,0.08846 -0.4,0.08846c0.1,-0.08846 0.1,-0.17691 0.2,-0.26537c-0.4,0 -0.4,0.17691 -0.7,0.26537c-0.2,-1.14995 -1.8,-0.79612 -3.1,-0.88457c0.2,0.53074 -0.9,0.17691 -0.7,0.79612c1.1,0.26537 2.2,0.26537 3.4,0.26537c-0.6,0.26537 -1.4,0.44229 -1.8,0.88457c-0.2,-0.26537 -0.8,-0.26537 -1.2,-0.35383c0,0.70766 0.4,0.88457 -0.5,1.14995c-1.1,-0.35383 -2.4,0.53074 -4.3,0.17691c0,-0.35383 -0.3,-0.6192 -0.2,-1.14995c-1.6,0 -1.9,0.88457 -3.3,0.97303c-0.5,-1.14995 -1.7,0.17691 -2.9,0c-0.7,-0.08846 -0.6,-0.70766 -1.2,-0.97303c-0.2,0.6192 -0.9,0.97303 -2.1,0.97303c0.7,1.41532 -2.3,0.79612 -1.4,1.85761c-0.7,0.08846 -1.2,0.26537 -1.6,0.53074c0.7,1.50378 -1.6,1.14995 -1.6,2.29989c3.1,0.08846 4.6,-1.50378 7.5,-0.08846c-0.4,0.53074 0.3,0.97303 0.3,1.32686c0.5,-0.6192 1.7,-0.17691 2.4,0c-0.1,-0.88457 1.3,-0.70766 1.9,-0.35383c-0.2,-0.79612 1.1,0.08846 1,-0.35383c-0.3,0 -0.5,-0.17691 -0.5,-0.44229c2.1,-0.53074 0.9,-2.65372 -1,-2.65372c-0.5,0.26537 -0.6,0.6192 -1.5,0.53074c-1.4,-0.88457 -3.2,-1.50378 -4.8,-0.6192c-0.5,-2.12298 3.8,-1.41532 5.3,-0.53074c2.3,-1.32686 5.2,-0.70766 7,-0.88457c-0.5,0.88457 -1.9,1.06149 -2.4,1.85761c1.4,0.26537 1.9,0.35383 2.9,0.26537c-0.2,0.97303 -2.7,0.44229 -3.6,0.97303c0.7,0.08846 1,0.53074 1.7,0.6192c0.1,-0.70766 1,0.44229 2.4,-0.35383c-0.9,-1.94606 3,-1.32686 5.5,-1.32686c-0.1,0.35383 0,0.6192 0.2,0.79612c-1.8,0 -2.7,0.53074 -2.9,1.50378c1.7,0.88457 3.5,0.26537 5.8,0.44229c0.3,-0.17691 0,-0.70766 0.4,-0.70766c1.7,0.44229 2.9,-0.26537 4.3,-0.17691c0.5,0.35383 -0.2,0.53074 0.2,0.79612c1.9,0.26537 3.2,-0.26537 4.6,-0.70766c0.1,-0.53074 -0.4,-0.53074 0,-0.79612c0.7,0.17691 1.5,0.17691 2.2,0.26537c-0.7,-0.6192 0.6,-1.68069 -0.8,-1.76915c0,0.35383 0.5,0.44229 0.3,0.97303c-1.9,0.6192 -2.8,-0.08846 -4.3,-0.08846c0.6,-0.70766 0.2,-0.88457 -0.5,-1.41532c0.6,-0.26537 1.1,-0.70766 2.1,-0.70766c0.6,0.26537 1.2,0.53074 2.4,0.44229c-0.1,-0.97303 1.7,0.17691 1.7,-0.79612c0.6,0.08846 1.7,-0.17691 1.9,0.17691c0.1,0.6192 -1,0.35383 -1,0.97303c0.5,0.53074 1.4,0.79612 2.7,0.79612c0.2,-0.35383 -1,-0.44229 -0.3,-0.6192c0.3,0 0.3,-0.17691 0.5,-0.17691c1.2,0.26537 0.4,1.06149 1.7,1.41532c-1,0.6192 -1.5,0.88457 -0.7,1.68069c0.8,-0.08846 1.3,-0.26537 2.1,0c0.8,-0.53074 1.3,-1.14995 2.4,-1.50378c-0.7,-1.76915 2.9,-2.47681 3.3,-0.88457c1.3,-0.35383 2.2,0.08846 2.7,0.79612c-0.6,0.08846 -0.9,0.26537 -1.7,0.17691c-0.1,0.88457 1.9,0.35383 2.2,0.97303c0,0.26537 -0.3,0.35383 -0.2,0.70766c-0.6,0 -1.2,0 -1.2,0.35383c2.6,-0.88457 6.3,0 5.6,2.21144c1.8,-0.26537 4.1,-0.97303 5.5,-0.70766c0.3,-0.44229 0.8,-0.79612 1.6,-0.97303c0.7,0 0.4,0.6192 1,0.6192c0.7,-1.06149 2.6,-1.2384 4.1,-1.68069c0.7,0.70766 0,1.50378 -0.2,2.12298c1.7,-0.44229 1.9,-0.17691 3.4,0.08846c0.1,-0.26537 -0.3,-0.26537 -0.5,-0.44229c1.8,-0.17691 1.7,-2.56527 4,-1.85761c0,-0.53074 -0.5,-0.88457 -1.4,-0.79612c-1.1,1.06149 -3.1,-0.35383 -3.7,-1.14995c0.5,-0.26537 1.3,-0.44229 2.4,-0.35383c-0.6,0.53074 0.8,0.79612 1.7,0.79612c-1.1,-0.6192 -0.7,-1.32686 -2,-1.94606c3.1,-1.2384 3.7,1.59223 6.3,0.26537c1.1,0.88457 3,0.26537 3.4,1.76915c0.5,0 1,0 1.4,0c0.4,0.79612 1.3,1.14995 2.7,1.2384c0.6,0.97303 0,1.41532 0.5,2.29989c0.9,-0.26537 0.4,0.08846 1.2,0.17691c0.4,-1.68069 0.8,-2.9191 1.4,-4.24596c3.9,-0.17691 10,-1.41532 12.8,0.70766c-1,1.32686 -5.3,0.6192 -7.5,0.70766c0.2,1.2384 -1.9,1.06149 -2.8,1.14995c0.6,1.59223 4.3,0.70766 5.8,1.94606c0.4,-0.17691 0,-0.97303 0.7,-0.97303c1,0.44229 1.8,-0.17691 2.6,-0.35383c0,0.44229 0.8,0.35383 1.4,0.44229c0.9,-0.6192 3,-0.53074 3.4,-1.50378c-0.1,0.53074 0.6,-0.08846 1.2,0.26537c0.8,-0.79612 0.1,-1.68069 1.7,-1.94606c0.5,0.17691 1.2,0.26537 1.2,0.79612c1.5,-0.44229 1.9,0.44229 2.7,0.97303c-3.2,1.06149 1.7,2.38835 3.2,1.2384c-0.5,-1.06149 0,-1.50378 1.4,-1.68069c0,0.35383 0,0.6192 0,0.97303c0.9,-0.08846 1.9,0.88457 2.4,0c-0.5,-0.26537 -0.7,-0.6192 -1.9,-0.44229c0,-0.79612 -0.7,-1.14995 -0.8,-1.76915c0.6,0.08846 0.4,-0.35383 0.9,-0.35383c0.3,0.35383 0.4,0.79612 1.2,0.79612c0.9,-0.17691 0.8,-1.06149 1.9,-1.14995c1.7,0.6192 2.5,0.08846 3.2,1.59223c-0.7,0.44229 -0.5,1.41532 0.3,1.94606c-1.6,0.17691 -0.7,0.35383 -0.4,0.70766c-1,-0.17691 -1.6,0 -1.5,0.88457c0.2,0 0.4,0 0.7,0c-0.3,-0.6192 0.7,-0.53074 0.8,-0.88457c0.1,0.08846 0.4,0.17691 0.1,0.35383c1,-0.08846 1,0.44229 1.9,0.35383c0,-0.79612 -0.2,-0.79612 0.5,-1.14995c3.5,0.88457 5.7,0.17691 8.7,0.26537c-0.6,0.88457 0.6,1.14995 -0.5,1.68069c0.8,0.08846 1.2,-0.08846 1.7,-0.17691c0.2,-0.79612 -0.6,-0.79612 -0.5,-1.50378c0.9,0.08846 0.9,0.79612 1.9,0.79612c0.8,-0.44229 0,-1.2384 1.5,-0.70766c-0.3,-0.70766 -1.9,-0.70766 -1.5,-1.59223c1.4,0.88457 3.3,1.85761 6.3,2.03452c0.3,-0.44229 0.6,-0.79612 1.2,-0.97303c1.3,0.26537 3,1.14995 4.6,0.44229c0.4,0.17691 0.5,0.6192 1,0.79612c1.5,0 1.3,-0.35383 3,-0.35383c-0.2,-1.2384 0.6,-1.76915 0.4,-2.9191c-1.8,-0.08846 -0.3,-1.41532 -0.8,-1.50378c1.1,0.17691 0,0.97303 1,0.97303c0.3,0.35383 1,-0.44229 1.4,-0.53074c0.4,0.26537 0.9,0.53074 1.7,0.6192c0.3,-0.53074 2.4,-0.97303 2.6,-0.17691c-0.3,0.17691 -0.9,0.17691 -0.9,0.53074c0.4,0.08846 0.7,0.35383 1,0.6192c-0.7,0.08846 -0.9,-0.26537 -1.6,-0.17691c0,-0.08846 -0.1,-0.26537 -0.4,-0.44229c-0.8,-0.08846 -1.4,0.08846 -1.9,0.17691c-0.3,1.32686 2,1.14995 2.3,0.53074c0.2,0.35383 1.5,0.17691 1.6,0c1,0.70766 1.6,1.50378 3.1,1.76915c0.8,-0.08846 0.4,-0.53074 0.7,-0.6192c2.1,1.06149 2.3,-0.97303 4.2,-1.2384c0.2,0 0.3,0 0.4,0c-0.3,0.08846 -0.7,0.08846 -0.4,0.53074c1.3,0.88457 2.7,-0.70766 3.8,0.08846c0.3,-0.08846 0.4,-0.26537 0.6,-0.35383c1.8,0 3.7,-0.08846 5.8,-0.08846c0.3,0.08846 0.6,0.17691 0.8,0.26537c0.3,-0.35383 0.8,-0.26537 1.2,-0.35383c1.6,-0.08846 3.4,-0.08846 4.5,-0.35383c3.8,0.17691 7.5,0 11.4,-0.08846c0.1,0.26537 0.4,0.53074 0.3,0.97303c1.3,0.08846 1.6,0.17691 2.9,0c0,-0.70766 1.1,-0.70766 1.7,-0.97303c1.7,0.6192 3.4,0.79612 4.8,-0.08846c0.5,0 1.2,0 1.8,0c0.3,0.17691 0.7,0.35383 0.8,0.70766c1.1,-0.08846 1.3,-0.6192 1.7,-1.06149c2.7,0.26537 5.7,0.08846 8.5,0.44229c1.4,0.08846 2.2,0.44229 3.8,0.53074c0.6,0.35383 1,0.88457 1.2,1.59223c1.2,-0.88457 2.6,-1.59223 4,-2.38835c0.5,-0.08846 1,-0.26537 1.3,-0.08846c0.5,0.70766 1.8,0.44229 3,0.35383c0.9,0.08846 1.9,0.26537 2.4,0.79612c1.5,-0.44229 3.4,-0.26537 5,-0.26537c2.9,0 5.7,-0.17691 7.7,0c-0.2,-0.35383 -0.8,-0.53074 -0.9,-0.97303c0.3,0 0.6,-0.08846 0.9,-0.08846c0.3,0.08846 0.6,0 0.9,0.08846l0.1,-0.08846c0.1,0.08846 0.2,0.17691 0.2,0.26537c-0.2,0 -0.4,0 -0.6,0c-0.3,0.35383 0.2,0.6192 -0.5,0.97303c3.7,0.6192 7.2,0 11.3,0.53074c0.3,0.53074 -0.1,0.6192 -0.4,0.79612c0.6,-0.17691 1.3,0.53074 1.7,0c-0.7,0 -0.8,-0.26537 -0.8,-0.70766c0.7,-0.6192 1.6,-0.35383 2.5,-0.26537l0,0.08846c1.4,0.17691 2.9,0.08846 3.8,-0.53074c0.2,-0.53074 -0.6,-0.26537 -0.7,-0.6192c0.3,-0.26537 0.2,-0.70766 0.9,-0.70766c0.1,0.35383 0,0.44229 0,0.6192c0,0.08846 -0.1,0.08846 -0.1,0.08846c0.1,0 0,0.08846 0.1,0.08846c0,0.08846 0.1,0.08846 0,0.26537c0.2,0 0.2,0 0.4,0c0,0.08846 0.1,0.08846 0.2,0.17691c4.3,0 9.9,-0.08846 13.8,-0.44229c-1,0.53074 -2.3,0 -2.8,0.79612c1.1,0.97303 3.1,0.70766 2.9,-0.79612c0.2,-0.08846 0.6,-0.08846 0.8,-0.08846c-0.2,-0.44229 -0.4,-0.6192 -0.7,-0.79612c1.2,0.08846 2.3,0.17691 3.7,-0.17691c0.5,0.08846 1,0.26537 1.7,0.26537c-0.8,0.08846 -1.5,0.53074 -2.7,0.17691c0.6,1.41532 3.2,0.35383 5.3,0.44229c0,0.08846 -0.1,0.26537 -0.1,0.44229c1.1,-0.26537 1.8,0 2.6,0.17691l0,0.08846c-0.6,0 -0.8,0.26537 -1,0.53074c1.4,-0.17691 1.7,0 2.9,0.17691c0.8,-3.5383 8.6,-0.6192 11.1,-1.41532c-1.2,-0.08846 0.2,-0.26537 0.4,-0.35383c0.2,-0.44229 -0.7,-0.26537 -0.5,-0.79612c0.3,0 0.6,0 0.7,-0.17691c-0.3,-0.08846 -0.6,-0.17691 -0.6,-0.53074c0,0 0,0 0,-0.08846c0.9,-0.17691 1.1,-0.44229 2.2,-0.17691c-0.2,-0.79612 0.7,-0.88457 0.4,-1.76915c-0.6,-0.08846 -0.9,-0.53074 -1.6,-0.6192l0,0l0,0l0,0l0,0c-0.5,0 -0.9,-0.08846 -1.2,-0.26537c0,-0.08846 0.1,-0.08846 0,-0.17691c-0.6,-0.26537 -1.3,0.08846 -1.7,-0.44229c0,0.08846 -0.2,0.08846 -0.3,0.17691c-0.4,0.35383 -1.1,0.35383 -1.6,0.26537c-0.1,0 -0.1,0 -0.2,0c0.7,-0.53074 1.4,-0.53074 1.2,-1.32686c0.9,0.17691 0.9,-0.26537 1.1,-0.53074c0.2,0 0.2,0.17691 0.3,0.17691c0.2,0.35383 0.5,0.53074 0.9,0.79612c0.1,0.35383 0.4,0.53074 0.7,0.97303c3.1,0.08846 5.9,-0.97303 9.1,-0.79612c1.9,0.17691 2.4,-0.26537 2.8,-0.88457c0.5,0 1.1,0.08846 1.5,-0.08846c-0.4,0.53074 0.7,0.08846 0.7,0.44229c-0.6,0.26537 -1,0.6192 -1,1.32686c0.4,0.08846 1,-0.44229 1.2,0c0.4,0.53074 -1.1,0 -0.7,0.6192c0.1,0.08846 0.3,0.17691 0.2,0.35383c1.5,-0.17691 2.8,-0.26537 4.1,0.08846c-0.2,-0.97303 1.5,-0.70766 1.9,-1.32686c0.5,0.35383 0.8,1.14995 1.9,0.6192c-1.3,0.70766 0.9,1.14995 0.3,1.68069c-0.6,0 -1.6,-0.44229 -1.9,0.17691c0.9,-0.08846 1.5,0.08846 1.7,0.44229c0.1,0.53074 -1,0.26537 -0.9,0.79612c0.4,0.44229 1.2,-0.35383 2.1,-0.17691c0,0.17691 0,0.35383 0,0.6192c0.9,0.26537 1.4,-0.17691 2.2,-0.35383c-0.7,-0.26537 -0.9,-1.06149 -0.6,-1.59223c0.1,0 0.2,0.08846 0.3,0.26537c1.6,0.08846 2.1,-0.6192 3.8,-0.35383c-0.1,-0.6192 0.6,-1.14995 1.9,-0.79612c-0.2,-0.88457 -2.2,-0.17691 -1.5,-0.97303c-0.9,0.53074 -1.4,0 -1.9,-0.6192c4.4,-1.2384 11.2,0.17691 15.9,0.35383c-0.3,-0.44229 -0.2,-0.79612 0.5,-0.97303c0,0.88457 1.4,0.79612 2.2,1.14995c0.2,-0.35383 0.4,-0.70766 1.2,-0.70766c0,1.32686 -0.5,1.50378 -0.7,2.9191c1.1,0.44229 1.8,0.6192 3.1,0.26537c0.6,0.26537 -0.4,0.53074 0.5,0.53074c0.3,-0.08846 0.7,0 0.7,-0.17691c-0.6,-0.08846 0.4,-0.26537 0.3,-0.53074c-1.1,-0.53074 -2.5,-0.44229 -3.4,-0.79612c0.5,-0.79612 2.3,-1.32686 3.6,-1.06149c0.1,-3.5383 6,-0.53074 8.4,-2.21144c1.7,0.79612 7.1,0.53074 9.8,0.26537c0.1,0.26537 0.5,0.35383 0.5,0.79612c-0.7,0.17691 -1.4,0.35383 -2.1,0.53074c-0.2,1.06149 1.8,0.6192 1.5,1.76915c-1.6,-0.08846 -2.6,0.17691 -4.1,0.17691c1.5,1.06149 2.6,2.38835 4.2,3.36138c-0.3,-0.70766 0,-0.88457 -0.3,-1.50378c0,-0.26537 2,-0.08846 1.2,-0.35383c-0.7,-0.08846 -1.9,0.17691 -2.2,-0.17691c0,-0.17691 0,-0.35383 0,-0.6192c1.1,-0.44229 2.2,-0.26537 3.1,0.17691c0.5,-0.44229 0.8,-0.88457 0.7,-1.68069c1.5,-0.35383 2.6,-0.79612 2.9,-1.85761c0.1,-0.53074 -0.9,-0.17691 -0.7,-0.70766c0.8,-0.26537 1.8,-0.44229 2.6,0.17691c-0.8,0.79612 1.1,0.97303 0,1.76915c1.4,-0.08846 2.7,0.26537 3.9,0.6192c-0.6,0.08846 -1.4,0.08846 -1.4,0.53074c0.3,0.88457 2,0.6192 2.9,0.97303c0.4,-0.88457 1,-1.76915 1.6,-2.47681c0.3,0.88457 1.5,0.08846 1.9,0.17691c-0.6,0 -0.4,-0.70766 -0.5,-1.14995c-0.5,0 -0.8,-0.08846 -0.9,-0.35383c-0.8,-1.14995 1.8,-1.32686 2.1,-0.70766c-0.2,0.53074 0,0.70766 -0.7,1.14995c2,-0.35383 2.8,-1.50378 3.8,-2.47681c0.7,0.26537 0.6,1.14995 1.7,1.14995c0.3,-0.53074 0.2,-1.14995 1,-1.32686c1.4,-0.26537 4.1,-0.6192 3.9,1.41532c-0.6,0 -1,0.08846 -1,0.35383c1.3,0.17691 1.3,-0.44229 2.2,-0.53074c0.1,-0.26537 -0.3,-0.26537 -0.5,-0.44229c1.1,-1.14995 2.1,-2.47681 5,-2.47681c0.3,0.79612 1.3,1.2384 2.2,1.14995c-1.5,1.06149 2.3,1.14995 1.5,1.94606c2,-0.17691 5.4,-0.08846 6.3,1.41532c-0.1,0.26537 -0.3,0.44229 -0.5,0.53074c-1.3,0.17691 -1.5,-0.35383 -1.9,-0.79612c-1.2,0.6192 -4.7,-0.53074 -5,1.68069c1,0.26537 1.7,0.44229 2.6,0c0.2,0.70766 0.6,0.26537 1.7,0.44229c0.7,-0.08846 0.6,-0.79612 1.4,-0.79612c3.2,1.14995 6.4,1.41532 10.1,1.50378c0,0.44229 0.2,0.97303 0.5,1.59223c-0.2,0.35383 -0.4,0.6192 -1.2,0.53074c-0.3,-0.97303 -0.8,-1.76915 -2,-2.12298c-0.3,0.53074 -1.2,0.6192 -1.9,0.88457c0.4,0.08846 0.9,0.35383 0.5,0.6192c-0.8,0.26537 -0.2,-0.44229 -1,-0.26537c0.6,0.88457 -0.8,0.53074 -0.2,1.41532c-0.5,0.08846 -1.8,0.53074 -1.9,0c-0.1,-0.44229 1.1,0 0.7,-0.53074c-0.3,-0.17691 -1.9,-0.35383 -2.2,0c0.9,-0.08846 0.8,0.6192 1,0.97303c-0.6,-0.08846 -0.8,-0.26537 -1.2,0.17691c0.3,0.08846 0.7,0.17691 0.7,0.6192c-0.7,0.26537 -1.7,0.44229 -2.1,0.97303c0.8,0.53074 1.4,-0.44229 2.1,-0.53074c0.2,0 0.8,0.35383 1,0.35383c0.5,-0.08846 0.7,-0.53074 0.9,-0.53074c0.3,0 0.9,0.53074 1.2,0.53074c2,0 4.5,-1.68069 6.3,-0.44229c0,-0.17691 0,-0.35383 0,-0.6192c0.8,0 1.3,-0.35383 1.7,0.17691c0.4,-0.26537 0.2,-0.88457 0.2,-1.32686c0.9,0.26537 0.5,-0.17691 1.2,-0.35383c0.2,0.44229 -0.3,0.44229 -0.2,0.79612c0.9,0 1,-0.44229 0.7,-0.97303c2.5,-0.53074 1.6,-2.29989 3.6,-3.27293c1,-0.26537 1.2,0.26537 1.9,0.26537c-0.3,-0.70766 0.5,-1.14995 0,-1.50378c1,-0.70766 2.8,-0.88457 3.3,-1.85761c-0.4,-0.08846 -1,0.44229 -1.2,0c0.4,-0.44229 0.5,-0.97303 1,-1.32686c0.4,0.08846 0.3,0.6192 1.2,0.44229c0.6,-1.14995 5.4,-0.79612 5.6,0.08846c1.6,-0.70766 4,-0.88457 6,-1.32686c0.8,0.44229 0,0.97303 0.8,1.50378c1,0 1.5,-0.26537 2.1,-0.53074c0.1,-0.44229 -0.7,-0.79612 0.2,-0.97303c1,0.26537 0.2,0.79612 0.7,1.32686c0.8,-0.35383 2.1,-0.44229 2,0.6192c-0.7,0.17691 -1.1,-0.53074 -1,0.17691c0.9,0.08846 1.5,0.08846 2.4,-0.17691c-0.3,-0.44229 -0.3,-0.97303 0.2,-1.32686c0.9,-0.17691 0.9,0.26537 1.7,0.26537c0.2,-0.97303 2,-0.79612 2.4,-1.68069c0.6,0.26537 0.8,1.76915 0.3,2.29989c-0.1,-0.44229 -0.8,-0.53074 -1.2,-0.79612c-0.9,0.70766 -1.7,1.14995 -3.1,1.14995c0.4,0.97303 -0.9,0.70766 -0.7,1.50378c1.2,-0.08846 2.4,-0.08846 2.7,0.44229c-0.7,1.06149 -2.4,1.59223 -4,1.2384c0.6,-0.53074 0.7,-1.32686 1.2,-1.94606c-1.7,0 -2.3,0.70766 -2.9,1.32686c-0.2,-0.26537 -0.8,-0.26537 -1.2,-0.35383c0,0.70766 0.4,0.88457 -0.5,1.14995c-1.1,-0.35383 -2.4,0.53074 -4.3,0.17691c0,-0.35383 -0.3,-0.6192 -0.2,-1.14995c-1.6,0 -1.9,0.88457 -3.3,0.97303c-0.5,-1.14995 -1.7,0.17691 -2.9,0c-0.7,-0.08846 -0.6,-0.70766 -1.2,-0.97303c-0.2,0.6192 -0.9,0.97303 -2.1,0.97303c0.7,1.41532 -2.3,0.79612 -1.4,1.85761c-0.7,0.08846 -1.2,0.26537 -1.6,0.53074c0.7,1.50378 -1.6,1.14995 -1.6,2.29989c3.1,0.08846 4.6,-1.50378 7.5,-0.08846c-0.4,0.53074 0.3,0.97303 0.3,1.32686c0.5,-0.6192 1.7,-0.17691 2.4,0c-0.1,-0.88457 1.3,-0.70766 1.9,-0.35383c-0.2,-0.79612 1.1,0.08846 1,-0.35383c-0.3,0 -0.5,-0.17691 -0.5,-0.44229c2.1,-0.53074 0.9,-2.65372 -1,-2.65372c-0.5,0.26537 -0.6,0.6192 -1.5,0.53074c-1.4,-0.88457 -3.2,-1.50378 -4.8,-0.6192c-0.5,-2.12298 3.8,-1.41532 5.3,-0.53074c2.3,-1.32686 5.2,-0.70766 7,-0.88457c-0.5,0.88457 -1.9,1.06149 -2.4,1.85761c1.4,0.26537 1.9,0.35383 2.9,0.26537c-0.2,0.97303 -2.7,0.44229 -3.6,0.97303c0.7,0.08846 1,0.53074 1.7,0.6192c0.1,-0.70766 1,0.44229 2.4,-0.35383c-0.9,-1.94606 3,-1.32686 5.5,-1.32686c-0.1,0.35383 0,0.6192 0.2,0.79612c-1.8,0 -2.7,0.53074 -2.9,1.50378c1.7,0.88457 3.5,0.26537 5.8,0.44229c0.3,-0.17691 0,-0.70766 0.4,-0.70766c1.7,0.44229 2.9,-0.26537 4.3,-0.17691c0.5,0.35383 -0.2,0.53074 0.2,0.79612c1.9,0.26537 3.2,-0.26537 4.6,-0.70766c0.1,-0.53074 -0.4,-0.53074 0,-0.79612c0.6,0.17691 1.4,0.17691 2.6,0.08846c-0.7,-0.6192 0.6,-1.68069 -0.8,-1.76915c0,0.35383 0.5,0.44229 0.3,0.97303c-1.9,0.6192 -2.8,-0.08846 -4.3,-0.08846c0.6,-0.70766 0.2,-0.88457 -0.5,-1.41532c0.6,-0.26537 1.1,-0.70766 2.1,-0.70766c0.6,0.26537 1.2,0.53074 2.4,0.44229c-0.1,-0.97303 1.7,0.17691 1.7,-0.79612c0.6,0.08846 1.7,-0.17691 1.9,0.17691c0.1,0.6192 -1,0.35383 -1,0.97303c0.5,0.53074 1.4,0.79612 2.7,0.79612c0.3,-0.35383 -1,-0.44229 -0.3,-0.6192c0.3,0 0.3,-0.17691 0.5,-0.17691c1.2,0.26537 0.4,1.06149 1.7,1.41532c-1,0.6192 -1.5,0.88457 -0.7,1.68069c0.8,-0.08846 1.3,-0.26537 2.1,0c0.8,-0.53074 1.3,-1.14995 2.4,-1.50378c-0.7,-1.76915 2.9,-2.47681 3.3,-0.88457c1.3,-0.35383 2.2,0.08846 2.7,0.79612c-0.6,0.08846 -0.9,0.26537 -1.7,0.17691c-0.1,0.88457 1.9,0.35383 2.2,0.97303c0,0.26537 -0.3,0.35383 -0.2,0.70766c-0.6,0 -1.2,0 -1.2,0.35383c2.6,-0.88457 6.3,0 5.6,2.21144c1.8,-0.26537 4.1,-0.97303 5.5,-0.70766c0.3,-0.44229 0.8,-0.79612 1.6,-0.97303c0.7,0 0.4,0.6192 1,0.6192c0.7,-1.06149 2.6,-1.2384 4.1,-1.68069c0.7,0.70766 0,1.50378 -0.2,2.12298c1.7,-0.44229 1.9,-0.17691 3.4,0.08846c0.1,-0.26537 -0.3,-0.26537 -0.5,-0.44229c1.8,-0.17691 1.7,-2.56527 4,-1.85761c0,-0.53074 -0.5,-0.88457 -1.4,-0.79612c-1.1,1.06149 -3.1,-0.35383 -3.7,-1.14995c0.5,-0.26537 1.3,-0.44229 2.4,-0.35383c-0.6,0.53074 0.8,0.79612 1.7,0.79612c-1.1,-0.6192 -0.7,-1.32686 -2,-1.94606c3.1,-1.2384 3.7,1.59223 6.3,0.26537c1.1,0.88457 3,0.26537 3.4,1.76915c0.5,0 1,0 1.4,0c0.4,0.79612 1.3,1.14995 2.7,1.2384c0.6,0.97303 0,1.41532 0.5,2.29989c0.9,-0.26537 0.4,0.08846 1.2,0.17691c0.4,-1.68069 0.8,-2.9191 1.4,-4.24596c3.9,-0.17691 10,-1.41532 12.8,0.70766c-1,1.32686 -5.3,0.6192 -7.5,0.70766c0.2,1.2384 -1.9,1.06149 -2.8,1.14995c0.6,1.59223 4.3,0.70766 5.8,1.94606c0.4,-0.17691 0,-0.97303 0.7,-0.97303c1,0.44229 1.8,-0.17691 2.6,-0.35383c0,0.44229 0.8,0.35383 1.4,0.44229c0.9,-0.6192 3,-0.53074 3.4,-1.50378c-0.1,0.53074 0.6,-0.08846 1.2,0.26537c0.8,-0.79612 0.1,-1.68069 1.7,-1.94606c0.5,0.17691 1.2,0.26537 1.2,0.79612c1.5,-0.44229 1.9,0.44229 2.7,0.97303c-3.2,1.06149 1.7,2.38835 3.2,1.2384c-0.5,-1.06149 0,-1.50378 1.4,-1.68069c0,0.35383 0,0.6192 0,0.97303c0.9,-0.08846 1.9,0.88457 2.4,0c-0.5,-0.26537 -0.8,-0.6192 -1.9,-0.44229c0,-0.79612 -0.7,-1.14995 -0.8,-1.76915c0.6,0.08846 0.4,-0.35383 0.9,-0.35383c0.3,0.35383 0.4,0.79612 1.2,0.79612c0.9,-0.17691 0.8,-1.06149 1.9,-1.14995c1.7,0.6192 2.5,0.08846 3.2,1.59223c-0.7,0.44229 -0.5,1.41532 0.3,1.94606c-1.6,0.17691 -0.7,0.35383 -0.4,0.70766c-1,-0.17691 -1.6,0 -1.5,0.88457c0.2,0 0.4,0 0.7,0c-0.3,-0.6192 0.7,-0.53074 0.8,-0.88457c0.1,0.08846 0.4,0.17691 0.1,0.35383c1,-0.08846 1,0.44229 1.9,0.35383c0,-0.79612 -0.2,-0.79612 0.5,-1.14995c3.5,0.88457 5.7,0.17691 8.7,0.26537c-0.6,0.88457 0.6,1.14995 -0.5,1.68069c0.8,0.08846 1.2,-0.08846 1.7,-0.17691c0.2,-0.79612 -0.6,-0.79612 -0.5,-1.50378c0.9,0.08846 0.9,0.79612 1.9,0.79612c0.8,-0.44229 0,-1.2384 1.5,-0.70766c-0.3,-0.70766 -1.9,-0.70766 -1.5,-1.59223c1.4,0.88457 3.3,1.85761 6.3,2.03452c0.3,-0.44229 0.6,-0.79612 1.2,-0.97303c1.3,0.26537 3,1.14995 4.6,0.44229c0.4,0.17691 0.5,0.6192 1,0.79612c1.5,0 1.3,-0.35383 2.9,-0.17691c-0.2,-1.2384 0.6,-1.76915 0.4,-2.9191c-1.8,-0.08846 -0.3,-1.41532 -0.8,-1.50378c1.1,0.17691 0,0.97303 1,0.97303c0.3,0.35383 1,-0.44229 1.4,-0.53074c0.4,0.26537 0.9,0.53074 1.7,0.6192c0.3,-0.53074 2.4,-0.97303 2.6,-0.17691c-0.3,0.17691 -0.9,0.17691 -0.9,0.53074c1.8,0.44229 2.1,2.03452 4.1,2.38835c0.8,-0.08846 0.4,-0.53074 0.7,-0.6192c2.4,1.14995 2.1,-1.85761 4.8,-1.50378c0.1,0.44229 -0.9,0.17691 -0.7,0.70766c1.3,0.88457 2.7,-0.70766 3.8,0.08846c1.5,-0.26537 1.7,-1.14995 2.6,-1.50378c0.8,0.79612 3.3,0.70766 4.6,1.2384c1.3,-1.68069 3.7,-0.26537 6,-1.06149c0,-0.79612 1,-0.88457 3.3,-2.12298c1,0.79612 2.7,1.2384 4.9,1.2384c-0.3,-0.44229 -0.2,-0.6192 0.5,-0.79612c1.6,0 2.3,0.26537 3.6,0c0.3,0.53074 0.6,1.06149 0.5,1.94606c1.3,0.08846 1.6,0.17691 2.9,0c0,-0.70766 1.1,-0.70766 1.7,-0.97303c2,0.70766 3.8,1.06149 5.3,-0.17691c0.2,0.53074 0.7,0.08846 1.2,0c0.4,0.17691 0.9,0.35383 1,0.79612c1.7,-0.08846 2.4,-0.70766 2.7,-1.68069c2.7,1.32686 6.7,1.32686 11.4,1.50378c0.6,0.35383 1,0.88457 1.2,1.59223c1.5,-0.97303 3.2,-1.85761 4.8,-2.83064c1.4,0.70766 4.7,0 6,1.41532c3,-0.97303 5.8,-0.70766 9.9,-0.6192c0.2,-0.97303 2.5,-0.6192 3.8,-0.88457c0.4,0.17691 0,0.97303 0.7,0.97303c0.7,-0.53074 2.7,-0.6192 3.9,-0.35383c0.1,-0.44229 0.5,-0.70766 0.7,-1.14995c-0.5,-0.35383 -0.9,-0.26537 -0.5,-0.79612c1.6,0.08846 4.5,-0.26537 5.2,-1.2384c0.9,0.08846 2.3,-0.26537 2.4,0.35383c-0.7,0.53074 -1.6,1.06149 -2.8,1.32686c-0.2,0.88457 1.4,0.6192 1.2,1.59223c1.4,0 1.2,0.08846 2.4,0.26537c0,0.35383 0.1,0.6192 0.3,0.79612c1.4,0.17691 2.9,0.08846 3.8,-0.53074c0.2,-0.53074 -0.6,-0.26537 -0.7,-0.6192c0.3,-0.26537 0.2,-0.70766 0.9,-0.70766c0.2,0.44229 0.2,0.53074 0,0.97303c1.6,0.17691 1.7,0.35383 2.6,0c0.2,-0.97303 0.9,-1.76915 0.4,-2.29989c1.7,-0.26537 1.4,0.88457 2.9,0.79612c0.8,-0.53074 -0.5,-0.79612 -0.5,-1.41532c0.4,-0.44229 0.9,-0.88457 1.9,-0.88457c0.3,0.08846 0.6,0.26537 0.7,0.53074c-0.4,0.6192 -1.3,0.88457 -1.4,1.68069c5,0.17691 7.6,1.41532 11.6,0.35383c1.2,0.44229 3.6,0.08846 4.3,0.79612c0.1,0.26537 -0.2,0.35383 -0.2,0.6192c1.4,-0.26537 2.4,0 3.6,0.26537c0.8,-0.44229 -0.1,-1.14995 -0.3,-1.76915c0.2,0 0.6,-0.08846 0.9,-0.08846c0.6,0.35383 1,0.88457 2.3,0.79612c0.3,-0.6192 1.4,-0.70766 2.4,-0.79612c1,0.08846 2.1,0.17691 2.4,0.79612c1.3,0.08846 1.7,-0.44229 2.3,-0.79612c0.3,0 0.7,0.08846 0.9,0.08846c-0.2,0.6192 -1.2,1.32686 -0.3,1.76915c1.2,-0.26537 2.1,-0.53074 3.6,-0.26537c0,-0.26537 -0.3,-0.35383 -0.2,-0.6192c0.7,-0.79612 3.1,-0.35383 4.3,-0.79612c4,1.06149 6.7,-0.17691 11.6,-0.35383c-0.2,-0.79612 -1,-1.06149 -1.4,-1.68069c0.1,-0.26537 0.4,-0.44229 0.7,-0.53074c1,0 1.5,0.44229 1.9,0.88457c0.1,0.6192 -1.3,0.79612 -0.5,1.41532c1.5,0.08846 1.2,-1.06149 2.9,-0.79612c-0.5,0.6192 0.1,1.32686 0.4,2.29989c0.9,0.35383 1,0.17691 2.6,0c-0.2,-0.44229 -0.2,-0.53074 0,-0.97303c0.6,0 0.6,0.53074 0.9,0.70766c0,0.26537 -0.9,0.08846 -0.7,0.6192c0.8,0.6192 2.4,0.70766 3.8,0.53074c0.2,-0.17691 0.3,-0.44229 0.3,-0.79612c1.1,-0.17691 1,-0.26537 2.4,-0.26537c-0.2,-0.97303 1.4,-0.6192 1.2,-1.59223c-1.1,-0.26537 -2,-0.79612 -2.8,-1.32686c0.1,-0.6192 1.5,-0.26537 2.4,-0.35383c0.6,1.06149 3.5,1.41532 5.2,1.2384c0.4,0.53074 0,0.44229 -0.5,0.79612c0.2,0.44229 0.6,0.70766 0.7,1.14995c1.2,-0.26537 3.3,-0.26537 3.9,0.35383c0.7,0 0.3,-0.79612 0.7,-0.97303c1.2,0.35383 3.6,-0.08846 3.8,0.88457c4.1,-0.08846 6.9,-0.26537 9.9,0.6192c1.3,-1.41532 4.6,-0.70766 6,-1.41532c1.6,0.97303 3.3,1.85761 4.8,2.83064c0.2,-0.70766 0.5,-1.2384 1.2,-1.59223c4.7,-0.17691 8.7,-0.08846 11.4,-1.50378c0.3,0.97303 1.1,1.59223 2.7,1.68069c0.2,-0.35383 0.6,-0.6192 1,-0.79612c0.5,0.08846 1,0.53074 1.2,0c1.5,1.2384 3.4,0.88457 5.3,0.17691c0.7,0.26537 1.7,0.26537 1.7,0.97303c1.2,0.17691 1.6,0 2.9,0c-0.2,-0.88457 0.2,-1.41532 0.5,-1.94606c1.3,0.17691 2,-0.08846 3.6,0c0.7,0.17691 0.8,0.35383 0.5,0.79612c2.2,0 3.9,-0.35383 4.9,-1.2384c0.8,0.26537 1.9,0.35383 1.9,1.14995c2.4,0.79612 4.7,-0.6192 6,1.06149c1.3,-0.53074 3.7,-0.35383 4.6,-1.2384c0.9,0.35383 1.1,1.2384 2.6,1.50378c1.1,-0.70766 2.4,0.79612 3.8,-0.08846c0.2,-0.53074 -0.8,-0.26537 -0.7,-0.70766c2.7,-0.35383 2.4,2.65372 4.8,1.50378c0.3,0.08846 -0.1,0.53074 0.7,0.6192c2,-0.35383 2.3,-1.94606 4.1,-2.38835c0,-0.35383 -0.6,-0.35383 -0.9,-0.53074c0.2,-0.79612 2.3,-0.35383 2.6,0.17691c0.8,0 1.3,-0.35383 1.7,-0.6192c0.4,0.08846 1.1,0.88457 1.4,0.53074c1,0 -0.1,-0.79612 1,-0.97303c-0.5,0.08846 1,1.41532 -0.7,1.50378c-0.2,1.06149 0.7,1.68069 0.4,2.9191c1.6,-0.17691 1.4,0.17691 2.9,0.17691c0.5,-0.17691 0.6,-0.6192 1,-0.79612c1.6,0.70766 3.3,-0.17691 4.6,-0.44229c0.6,0.17691 0.9,0.53074 1.2,0.97303c3,-0.17691 4.9,-1.06149 6.3,-2.03452c0.4,0.88457 -1.2,0.79612 -1.5,1.59223c1.6,-0.44229 0.7,0.26537 1.5,0.70766c1,0 1,-0.70766 1.9,-0.79612c0.1,0.70766 -0.7,0.79612 -0.5,1.50378c0.6,0.08846 0.9,0.26537 1.7,0.17691c-1.2,-0.6192 0,-0.79612 -0.5,-1.68069c3,-0.08846 5.2,0.53074 8.7,-0.26537c0.7,0.35383 0.6,0.35383 0.5,1.14995c0.9,0.08846 0.9,-0.44229 1.9,-0.35383c-0.3,-0.17691 0,-0.26537 0.1,-0.35383c0.1,0.35383 1.1,0.26537 0.8,0.88457c0.3,0 0.5,0 0.7,0c0.1,-0.88457 -0.5,-1.06149 -1.5,-0.88457c0.3,-0.35383 1.1,-0.44229 -0.4,-0.70766c0.8,-0.53074 1,-1.50378 0.3,-1.94606c0.7,-1.50378 1.5,-0.97303 3.2,-1.59223c1.1,0.08846 1,0.97303 1.9,1.14995c0.8,0 0.9,-0.44229 1.2,-0.79612c0.5,0 0.2,0.44229 0.9,0.35383c-0.2,0.6192 -0.9,0.97303 -0.8,1.76915c-1.1,-0.26537 -1.4,0.17691 -1.9,0.44229c0.5,0.79612 1.5,-0.08846 2.4,0c0,-0.35383 0,-0.6192 0,-0.97303c1.4,0.17691 1.9,0.6192 1.4,1.68069c1.6,1.14995 6.5,-0.17691 3.2,-1.2384c0.8,-0.53074 1.2,-1.41532 2.7,-0.97303c0,-0.53074 0.7,-0.6192 1.2,-0.79612c1.6,0.26537 0.9,1.06149 1.7,1.94606c0.6,-0.26537 1.2,0.35383 1.2,-0.26537c0.4,0.97303 2.5,0.79612 3.4,1.50378c0.5,-0.08846 1.4,0.08846 1.4,-0.44229c0.7,0.17691 1.6,0.88457 2.6,0.35383c0.7,0 0.3,0.70766 0.7,0.97303c1.5,-1.2384 5.2,-0.35383 5.8,-1.94606c-0.9,-0.08846 -2.9,0.08846 -2.8,-1.14995c-2.2,-0.08846 -6.5,0.6192 -7.5,-0.70766c2.8,-2.12298 9,-0.88457 12.8,-0.70766c0.6,1.32686 1.1,2.56527 1.4,4.24596c0.9,-0.08846 0.3,-0.44229 1.2,-0.17691c0.4,-0.88457 -0.1,-1.32686 0.5,-2.29989c1.4,-0.08846 2.3,-0.44229 2.7,-1.2384c0.4,0 0.9,0 1.4,0c0.4,-1.50378 2.3,-0.88457 3.4,-1.76915c2.6,1.32686 3.2,-1.50378 6.3,-0.26537c-1.3,0.53074 -0.9,1.32686 -2,1.94606c0.9,0 2.2,-0.26537 1.7,-0.79612c1.1,-0.08846 1.9,0.08846 2.4,0.35383c-0.7,0.79612 -2.6,2.21144 -3.7,1.14995c-0.9,-0.08846 -1.3,0.26537 -1.4,0.79612c2.3,-0.6192 2.1,1.68069 4,1.85761c-0.2,0.08846 -0.5,0.08846 -0.5,0.44229c1.5,-0.17691 1.7,-0.44229 3.4,-0.08846c-0.1,-0.6192 -0.9,-1.41532 -0.2,-2.12298c1.5,0.44229 3.5,0.70766 4.1,1.68069c0.6,0 0.3,-0.6192 1,-0.6192c0.7,0.08846 1.3,0.44229 1.6,0.97303c1.4,-0.26537 3.6,0.44229 5.5,0.70766c-0.7,-2.21144 3,-3.09601 5.6,-2.21144c0,-0.35383 -0.6,-0.35383 -1.2,-0.35383c0.1,-0.35383 -0.2,-0.44229 -0.2,-0.70766c0.3,-0.6192 2.3,-0.08846 2.2,-0.97303c-0.8,0.08846 -1.1,-0.08846 -1.7,-0.17691c0.4,-0.70766 1.4,-1.14995 2.7,-0.79612c0.3,-1.50378 3.9,-0.88457 3.3,0.88457c1.1,0.35383 1.6,0.97303 2.4,1.50378c0.7,-0.26537 1.3,-0.08846 2.1,0c0.8,-0.79612 0.3,-1.14995 -0.7,-1.68069c1.3,-0.26537 0.4,-1.06149 1.7,-1.41532c0.2,0 0.2,0.17691 0.5,0.17691c0.6,0.08846 -0.6,0.17691 -0.3,0.6192c1.3,0 2.1,-0.26537 2.7,-0.79612c0,-0.53074 -1.2,-0.35383 -1,-0.97303c0.1,-0.44229 1.3,-0.08846 1.9,-0.17691c0,0.97303 1.8,-0.26537 1.7,0.79612c1.1,0.08846 1.7,-0.17691 2.4,-0.44229c1,0 1.4,0.44229 2.1,0.70766c-0.6,0.53074 -1.1,0.6192 -0.5,1.41532c-1.5,-0.08846 -2.3,0.70766 -4.3,0.08846c-0.2,-0.53074 0.3,-0.6192 0.3,-0.97303c-1.5,0.08846 -0.1,1.14995 -0.8,1.76915c0.7,-0.08846 1.5,-0.08846 2.1,-0.26537c0.4,0.26537 -0.1,0.26537 0,0.79612c1.4,0.35383 2.7,0.97303 4.6,0.70766c0.4,-0.26537 -0.4,-0.44229 0.2,-0.79612c1.4,-0.08846 2.6,0.6192 4.3,0.17691c0.4,0.08846 0.1,0.6192 0.4,0.70766c2.2,-0.17691 4,0.44229 5.8,-0.44229c-0.2,-0.97303 -1.1,-1.50378 -2.9,-1.50378c0.2,-0.17691 0.3,-0.44229 0.2,-0.79612c2.5,0 6.4,-0.6192 5.5,1.32686c1.4,0.79612 2.3,-0.35383 2.4,0.35383c0.7,-0.08846 1,-0.53074 1.7,-0.6192c-0.9,-0.53074 -3.4,0 -3.6,-0.97303c1,0.17691 1.5,0 2.9,-0.26537c-0.5,-0.88457 -1.9,-0.97303 -2.4,-1.85761c1.9,0.17691 4.7,-0.44229 7,0.88457c1.5,-0.88457 5.8,-1.68069 5.3,0.53074c-1.6,-0.88457 -3.4,-0.26537 -4.8,0.6192c-0.9,0.08846 -1.1,-0.26537 -1.5,-0.53074c-1.9,0.08846 -3.1,2.12298 -1,2.65372c0,0.26537 -0.2,0.35383 -0.5,0.44229c-0.1,0.44229 1.2,-0.44229 1,0.35383c0.5,-0.35383 2,-0.53074 1.9,0.35383c0.7,-0.17691 1.9,-0.6192 2.4,0c0.1,-0.35383 0.8,-0.79612 0.3,-1.32686c3,-1.41532 4.5,0.17691 7.5,0.08846c0.1,-1.14995 -2.2,-0.70766 -1.6,-2.29989c-0.4,-0.26537 -0.9,-0.44229 -1.6,-0.53074c0.9,-1.06149 -2.1,-0.44229 -1.4,-1.85761c-1.1,0 -1.9,-0.26537 -2.1,-0.97303c-0.5,0.26537 -0.5,0.88457 -1.2,0.97303c-1.2,0.17691 -2.4,-1.06149 -2.9,0c-1.4,-0.08846 -1.7,-0.97303 -3.3,-0.97303c0.1,0.53074 -0.1,0.79612 -0.2,1.14995c-1.8,0.35383 -3.2,-0.53074 -4.3,-0.17691c-1,-0.26537 -0.5,-0.44229 -0.5,-1.14995c-0.4,0.08846 -1,0.08846 -1.2,0.35383c-0.7,-0.6192 -1.2,-1.32686 -2.9,-1.32686c0.5,0.53074 0.6,1.41532 1.2,1.94606c-1.5,0.35383 -3.3,-0.26537 -4,-1.2384c0.3,-0.44229 1.5,-0.44229 2.6,-0.44229c0.2,-0.79612 -1.2,-0.53074 -0.7,-1.50378c-1.4,0 -2.2,-0.44229 -3.1,-1.14995c-0.4,0.26537 -1.1,0.35383 -1.2,0.79612c-0.5,-0.53074 -0.2,-1.2384 0.4,-1.50378c0.4,0.88457 2.2,-0.08846 2.3,0.88457c0.8,0.08846 0.8,-0.35383 1.7,-0.26537c0.5,0.35383 0.5,0.88457 0.2,1.32686c0.9,0.26537 1.5,0.26537 2.4,0.17691c0.1,-0.70766 -0.3,0 -1,-0.17691c-0.1,-1.06149 1.2,-0.97303 2,-0.6192c0.4,-0.53074 -0.3,-1.06149 0.7,-1.32686c0.9,0.17691 0.1,0.44229 0.2,0.97303c0.6,0.26537 1.1,0.53074 2.1,0.53074c0.8,-0.53074 0,-1.06149 0.8,-1.50378c2,0.44229 4.4,0.6192 6,1.32686c0.2,-0.88457 4.9,-1.2384 5.5,-0.08846c0.9,0.17691 0.8,-0.26537 1.2,-0.44229c0.5,0.35383 0.7,0.88457 1,1.32686c-0.2,0.53074 -0.8,-0.08846 -1.2,0c0.5,1.06149 2.3,1.14995 3.3,1.85761c-0.5,0.35383 0.3,0.79612 0,1.50378c0.7,0 0.9,-0.44229 1.9,-0.26537c2,0.88457 1.1,2.65372 3.6,3.27293c-0.3,0.44229 -0.2,0.88457 0.7,0.97303c0.1,-0.35383 -0.4,-0.35383 -0.2,-0.79612c0.7,0.17691 0.3,0.70766 1.2,0.35383c0,0.44229 -0.2,1.06149 0.2,1.32686c0.4,-0.53074 0.9,-0.17691 1.7,-0.17691c0,0.17691 0,0.35383 0,0.6192c1.9,-1.2384 4.3,0.53074 6.3,0.44229c0.3,-0.08846 0.9,-0.53074 1.2,-0.53074c0.2,0 0.4,0.53074 0.9,0.53074c0.2,0 0.8,-0.35383 1,-0.35383c0.6,0.17691 1.3,1.06149 2.1,0.53074c-0.4,-0.53074 -1.4,-0.70766 -2.1,-0.97303c-0.1,-0.35383 0.4,-0.53074 0.7,-0.6192c-0.4,-0.35383 -0.6,-0.26537 -1.2,-0.17691c0.2,-0.35383 0.1,-1.06149 1,-0.97303c-0.3,-0.26537 -1.9,-0.17691 -2.2,0c-0.4,0.6192 0.8,0.17691 0.7,0.53074c0,0.53074 -1.4,0.08846 -1.9,0c0.6,-0.88457 -0.8,-0.44229 -0.2,-1.41532c-0.8,-0.26537 -0.2,0.44229 -1,0.26537c-0.4,-0.26537 0.1,-0.44229 0.5,-0.6192c-0.7,-0.35383 -1.6,-0.35383 -1.9,-0.88457c-1.2,0.35383 -1.7,1.14995 -2,2.12298c-0.8,0 -1,-0.26537 -1.2,-0.53074c0.3,-0.6192 0.5,-1.14995 0.5,-1.59223c3.6,-0.08846 6.8,-0.35383 10.1,-1.50378c0.8,0 0.7,0.70766 1.4,0.79612c1.1,-0.08846 1.5,0.26537 1.7,-0.44229c0.8,0.44229 1.6,0.26537 2.6,0c-0.3,-2.21144 -3.8,-0.97303 -5,-1.68069c-0.3,0.44229 -0.6,0.97303 -1.9,0.79612c-0.2,-0.17691 -0.4,-0.35383 -0.5,-0.53074c0.9,-1.59223 4.3,-1.59223 6.3,-1.41532c-0.8,-0.79612 3,-0.88457 1.5,-1.94606c0.9,0 2.3,0.35383 2.6,-0.44229c2.9,0 3.5,0.53074 4.6,1.76915c-0.2,0.08846 -0.5,0.08846 -0.5,0.44229c0.9,0.08846 0.9,0.79612 2.2,0.53074c-0.1,-0.26537 -0.4,-0.35383 -1,-0.35383c-0.2,-2.03452 2.5,-1.68069 3.9,-1.41532c0.9,0.17691 0.8,0.79612 1,1.32686c1.1,-0.08846 1,-0.88457 1.7,-1.14995c1,0.97303 1.8,2.12298 3.8,2.47681c-0.7,-0.44229 -0.5,-0.6192 -0.7,-1.14995c0.3,-0.6192 2.8,-0.44229 2.1,0.70766c0,0.26537 -0.3,0.35383 -0.9,0.35383c0,0.44229 0.2,1.14995 -0.5,1.14995c0.4,-0.08846 1.5,0.6192 1.9,-0.17691c0.6,0.70766 1.1,1.59223 1.6,2.47681c1,-0.35383 2.7,-0.17691 2.9,-0.97303c0,-0.53074 -0.8,-0.44229 -1.4,-0.53074c1.3,-0.35383 2.6,-0.70766 3.9,-0.6192c-1.1,-0.70766 0.8,-0.88457 0,-1.76915c0.7,-0.6192 1.7,-0.53074 2.6,-0.17691c0.2,0.6192 -0.7,0.26537 -0.7,0.70766c0.3,1.06149 1.5,1.50378 2.9,1.85761c-0.1,0.79612 0.3,1.2384 0.7,1.68069c0.9,-0.44229 2,-0.6192 3.1,-0.17691c0,0.17691 0,0.35383 0,0.6192c-0.3,0.44229 -1.5,0.08846 -2.2,0.17691c-0.8,0.26537 1.2,0.08846 1.2,0.35383c-0.3,0.6192 0,0.79612 -0.3,1.50378c1.6,-0.97303 2.7,-2.29989 4.2,-3.36138c-1.5,0 -2.5,-0.26537 -4.1,-0.17691c-0.3,-1.14995 1.7,-0.70766 1.5,-1.76915c-0.6,-0.26537 -1.3,-0.44229 -2.1,-0.53074c-0.1,-0.35383 0.4,-0.53074 0.5,-0.79612c2.6,0.26537 8,0.53074 9.8,-0.26537c2.4,1.68069 8.3,-1.41532 8.4,2.21144c1.3,-0.17691 3.1,0.26537 3.6,1.06149c-0.9,0.35383 -2.2,0.26537 -3.4,0.79612c-0.1,0.26537 1,0.44229 0.3,0.53074c0,0.17691 0.4,0.17691 0.7,0.17691c0.9,0 -0.1,-0.26537 0.5,-0.53074c1.3,0.44229 1.9,0.17691 3.1,-0.26537c-0.2,-1.41532 -0.7,-1.68069 -0.7,-2.9191l0.1,0c0.6,0.08846 1,0.26537 1.1,0.6192c0.4,-0.17691 0.5,-0.35383 0.9,-0.44229c0.6,0.08846 1.2,0.08846 1.8,0.17691c0,0.08846 0.1,0.08846 0.1,0.17691c0.2,0 0.6,-0.08846 0.8,-0.08846c0.9,0.17691 1.8,0.26537 2.7,0.26537c0.2,-0.26537 0.3,-0.35383 0.4,-0.53074c1.1,-0.08846 2.1,-0.17691 3.2,-0.26537c0.3,0.08846 0.3,0.35383 0.6,0.6192c-0.6,0.17691 -1.4,0.08846 -1.9,-0.35383c-1.5,0 -1.8,0.79612 -3.2,0.79612c0,0.53074 0.4,1.14995 0.7,1.76915c-1.7,0.35383 -3.6,0.70766 -4.2,1.32686c-0.5,-0.08846 -1.1,-0.17691 -1.9,-0.17691c0.2,0.26537 0.6,0.35383 0.7,0.70766c0.6,-0.08846 1.5,-0.26537 1.1,0.53074c1.8,-0.44229 3.5,-0.88457 4,-2.12298c0,0.08846 0.3,0.08846 0.4,0.17691c0.1,0.26537 0.2,0.26537 0.3,0.6192c1.6,0.35383 1.9,1.59223 4.3,1.50378l0,0c0.2,0.08846 0.4,0.26537 0.4,0.53074c0.6,-0.44229 1.1,0.17691 1.5,-0.17691c-0.5,-0.79612 0.4,-0.97303 1,-1.41532c1.7,-0.08846 3.6,0.17691 5,0.26537c-0.2,0.6192 -1.2,1.32686 -0.3,1.76915c0.6,-0.08846 1.2,0 1.7,-0.08846l0,0c0.3,0 0.4,-0.08846 0.5,-0.08846c0.4,0 0.8,-0.17691 1.4,-0.08846c0,-0.26537 -0.3,-0.35383 -0.2,-0.6192c0.7,-0.79612 3.1,-0.35383 4.3,-0.79612c0.9,0.17691 1.6,0 2.3,0.08846c0.2,0.35383 0.3,0.70766 0.1,1.2384c0.6,0.17691 1.2,0.17691 1.8,0.17691c0.4,0.88457 1.6,1.06149 2.5,0.35383c-0.4,-0.53074 -1.2,-0.44229 -2,-0.53074c-0.3,-0.35383 -0.2,-0.70766 -0.3,-1.06149c0.4,-0.08846 0.9,0.08846 1.3,0c0.6,0.17691 1.6,0.08846 1.5,0.70766c0.4,-0.44229 0.2,-0.53074 1.2,-0.35383c-0.5,-0.17691 -0.2,-0.44229 -0.1,-0.6192c0.7,-0.08846 1.4,-0.17691 2.3,-0.26537c-0.2,0.17691 -0.7,0.26537 -1,0.44229c0,0.26537 0.7,0.17691 0.5,0.6192c1.1,0.08846 2,0.08846 2.6,-0.26537c0.5,0.08846 0.6,0.35383 0.5,0.70766c0.2,0 0.6,0 0.9,0c0,-0.26537 0.1,-0.35383 0.3,-0.35383c-0.8,-0.53074 -0.5,-1.06149 -0.7,-1.41532c0.4,-0.17691 0.7,-0.44229 1.5,-0.35383c-0.5,0.6192 0.1,1.32686 0.4,2.29989c0.9,0.35383 1,0.17691 2.6,0c-0.2,-0.35383 -0.1,-0.53074 0,-0.70766c0.1,0 0.1,0.08846 0.2,0.08846c0,-0.08846 0,-0.08846 0,-0.17691c0.3,0.08846 0.5,0.26537 0.7,0.44229c0,0.26537 -0.9,0.08846 -0.7,0.6192c0.7,0.53074 1.9,0.53074 3.1,0.44229c0.7,0.26537 1.9,0.08846 2.9,0.17691c-0.1,-0.17691 -1.3,-0.35383 -0.5,-0.6192c-0.3,0.08846 -0.9,0.26537 -1.6,0.35383c0.1,-0.17691 0.2,-0.26537 0.2,-0.53074c1.1,-0.17691 1,-0.26537 2.4,-0.26537c-0.1,-0.26537 0.2,-0.35383 0.3,-0.44229c2.7,-0.26537 5.3,-0.35383 5.7,1.68069c1.2,-0.17691 1.5,-0.44229 2.9,-0.17691c-0.2,-0.26537 -0.4,-0.53074 -1,-0.53074c0.2,-0.17691 0,-0.35383 0.1,-0.53074c0.8,0 1.8,-0.17691 2.1,0.17691c0.3,0 0.3,-0.26537 0.3,-0.44229c1.3,0 2.4,-0.08846 3.5,-0.08846c0.3,0.08846 0.8,0.08846 0.8,0.35383c4.1,-0.08846 6.9,-0.26537 9.9,0.6192c0.3,-0.35383 0.9,-0.26537 1.3,-0.44229c2.2,0.08846 4.4,0.08846 6.4,0.08846l0,0c1,0.53074 2.1,1.14995 3,1.76915c0.1,-0.53074 0.5,-0.88457 0.9,-1.2384c1.3,-0.17691 2.3,-0.44229 3.2,0.35383c0,0.44229 -0.1,0.70766 -0.8,0.70766c0.4,0.44229 1.1,-0.17691 1.7,0c-0.2,-0.17691 -0.6,-0.26537 -0.4,-0.79612c3.8,-0.53074 7.1,-0.08846 10.5,-0.53074c0.1,0 0,0.08846 0.1,0.08846c0,-0.08846 0.1,-0.08846 0.1,-0.08846c0.2,0 0.4,0 0.6,0c-0.3,-0.08846 -0.2,-0.26537 -0.2,-0.35383c0.2,-0.08846 0.2,-0.26537 0.4,-0.35383c0.2,0 0.3,-0.08846 0.5,0c-0.3,0.08846 -0.4,0.35383 -0.5,0.53074c0.8,-0.08846 1.9,0 2.9,0c0.6,0.08846 1.2,0.08846 1.8,0c0.9,0 1.5,0 2.4,0c0.5,0.08846 1.1,0.17691 1.1,0.6192c1.2,0.17691 1.6,0 2.9,0c0,-0.35383 0.2,-0.6192 0.3,-0.88457c0.8,-0.08846 1.6,0 2.4,-0.17691c0.6,0.17691 1.1,-0.17691 1.8,-0.17691c0,0.08846 0.2,0.08846 0.1,0.17691c0.5,0 0.7,-0.17691 1.1,-0.26537c0.5,-0.17691 1.2,0.08846 1.4,-0.17691c0.6,-0.26537 2.3,0.79612 2.6,-0.26537c-0.6,0 -1.1,0 -1.4,-0.17691c0.1,0 0.1,-0.08846 0.1,-0.08846c0.3,-0.08846 0.9,-0.08846 1.1,-0.26537c0.2,0.08846 0.2,0.17691 0.3,0.17691c0,0.08846 0,0.08846 0,0.08846c0.9,-0.35383 1.4,0 1.2,0.79612c0.1,0 0.2,0 0.3,0c0,0.08846 0.2,0 0.2,0.08846c2.4,0.79612 4.7,-0.6192 6,1.06149c1.2,-0.53074 3.1,-0.53074 4.2,-1.14995c0.2,0 0.4,0 0.6,0c0.7,0.44229 1,1.14995 2.4,1.41532c1.1,-0.70766 2.4,0.79612 3.8,-0.08846c0.2,-0.53074 -0.8,-0.26537 -0.7,-0.70766c2.7,-0.35383 2.4,2.65372 4.8,1.50378c0.3,0.08846 -0.1,0.53074 0.7,0.6192c2,-0.35383 2.3,-1.94606 4.1,-2.38835c0,-0.08846 -0.1,0 -0.2,-0.08846c1.9,0.08846 3.6,0.08846 5.5,0.08846c-0.1,0 0,0.08846 -0.1,0.08846c-0.2,1.06149 0.7,1.68069 0.4,2.9191c1.6,-0.17691 1.4,0.17691 2.9,0.17691c0.5,-0.17691 0.6,-0.6192 1,-0.79612c1.6,0.70766 3.3,-0.17691 4.6,-0.44229c0.6,0.17691 0.9,0.53074 1.2,0.97303c3,-0.17691 4.9,-1.06149 6.3,-2.03452c0.4,0.88457 -1.2,0.79612 -1.5,1.59223c1.6,-0.44229 0.7,0.26537 1.5,0.70766c1,0 1,-0.70766 1.9,-0.79612c0.1,0.70766 -0.7,0.79612 -0.5,1.50378c0.5,0.08846 0.9,0.26537 1.7,0.17691c-1.2,-0.6192 0,-0.79612 -0.5,-1.68069c3,-0.08846 5.2,0.53074 8.7,-0.26537c0.7,0.35383 0.6,0.35383 0.5,1.14995c0.9,0.08846 0.9,-0.44229 1.9,-0.35383c-0.3,-0.17691 0,-0.26537 0.1,-0.35383c0.1,0.35383 1.1,0.26537 0.8,0.88457c0.3,0 0.5,0 0.7,0c0.1,-0.88457 -0.5,-1.06149 -1.5,-0.88457c0.3,-0.35383 1.1,-0.44229 -0.4,-0.70766c0.8,-0.53074 1,-1.50378 0.3,-1.94606c0.7,-1.50378 1.5,-0.97303 3.2,-1.59223c1.1,0.08846 1,0.97303 1.9,1.14995c0.8,0 0.9,-0.44229 1.2,-0.79612c0.5,0 0.2,0.44229 0.9,0.35383c-0.2,0.6192 -0.9,0.97303 -0.8,1.76915c-1.1,-0.26537 -1.4,0.17691 -1.9,0.44229c0.5,0.79612 1.5,-0.08846 2.4,0c0,-0.35383 0,-0.6192 0,-0.97303c1.4,0.17691 1.9,0.6192 1.4,1.68069c1.6,1.14995 6.5,-0.17691 3.2,-1.2384c0.8,-0.53074 1.2,-1.41532 2.7,-0.97303c0,-0.53074 0.7,-0.6192 1.2,-0.79612c1.6,0.26537 0.9,1.06149 1.7,1.94606c0.6,-0.26537 1.2,0.35383 1.2,-0.26537c0.4,0.97303 2.5,0.79612 3.4,1.50378c0.5,-0.08846 1.4,0.08846 1.4,-0.44229c0.7,0.17691 1.6,0.88457 2.6,0.35383c0.7,0 0.3,0.70766 0.7,0.97303c1.5,-1.2384 5.2,-0.35383 5.8,-1.94606c-0.9,-0.08846 -2.9,0.08846 -2.8,-1.14995c-2.2,-0.08846 -6.5,0.6192 -7.5,-0.70766c2.8,-2.12298 9,-0.88457 12.8,-0.70766c0.6,1.32686 1,2.56527 1.4,4.24596c0.9,-0.08846 0.3,-0.44229 1.2,-0.17691c0.4,-0.88457 -0.1,-1.32686 0.5,-2.29989c1.4,-0.08846 2.3,-0.44229 2.7,-1.2384c0.4,0 0.9,0 1.4,0c0.4,-1.50378 2.3,-0.88457 3.4,-1.76915c2.6,1.32686 3.2,-1.50378 6.3,-0.26537c-1.3,0.53074 -0.9,1.32686 -2,1.94606c0.9,0 2.2,-0.26537 1.7,-0.79612c1.1,-0.08846 1.9,0.08846 2.4,0.35383c-0.7,0.79612 -2.6,2.21144 -3.7,1.14995c-0.9,-0.08846 -1.3,0.26537 -1.4,0.79612c2.3,-0.6192 2.1,1.68069 4,1.85761c-0.2,0.08846 -0.5,0.08846 -0.5,0.44229c1.5,-0.17691 1.7,-0.44229 3.4,-0.08846c-0.1,-0.6192 -0.9,-1.41532 -0.2,-2.12298c1.6,0.44229 3.5,0.70766 4.1,1.68069c0.6,0 0.3,-0.6192 1,-0.6192c0.7,0.08846 1.3,0.44229 1.6,0.97303c1.4,-0.26537 3.6,0.44229 5.5,0.70766c-0.7,-2.21144 3,-3.09601 5.6,-2.21144c0,-0.35383 -0.6,-0.35383 -1.2,-0.35383c0.1,-0.35383 -0.2,-0.44229 -0.2,-0.70766c0.3,-0.6192 2.3,-0.08846 2.2,-0.97303c-0.8,0.08846 -1.1,-0.08846 -1.7,-0.17691c0.4,-0.70766 1.4,-1.14995 2.7,-0.79612c0.3,-1.50378 3.9,-0.88457 3.3,0.88457c1.1,0.35383 1.6,0.97303 2.4,1.50378c0.7,-0.26537 1.3,-0.08846 2.1,0c0.8,-0.79612 0.3,-1.14995 -0.7,-1.68069c1.3,-0.26537 0.4,-1.06149 1.7,-1.41532c0.2,0 0.2,0.17691 0.5,0.17691c0.6,0.08846 -0.6,0.17691 -0.3,0.6192c1.3,0 2.1,-0.26537 2.7,-0.79612c0,-0.53074 -1.2,-0.35383 -1,-0.97303c0.1,-0.44229 1.3,-0.08846 1.9,-0.17691c0,0.97303 1.8,-0.26537 1.7,0.79612c1.1,0.08846 1.7,-0.17691 2.4,-0.44229c1,0 1.4,0.44229 2.1,0.70766c-0.6,0.53074 -1.1,0.6192 -0.5,1.41532c-1.5,-0.08846 -2.3,0.70766 -4.3,0.08846c-0.2,-0.53074 0.3,-0.6192 0.3,-0.97303c-1.5,0.08846 -0.1,1.14995 -0.8,1.76915c0.7,-0.08846 1.5,-0.08846 2.1,-0.26537c0.5,0.26537 -0.1,0.26537 0,0.79612c1.4,0.35383 2.7,0.97303 4.6,0.70766c0.4,-0.26537 -0.4,-0.44229 0.2,-0.79612c1.4,-0.08846 2.6,0.6192 4.3,0.17691c0.4,0.08846 0.1,0.6192 0.4,0.70766c2.2,-0.17691 4,0.44229 5.8,-0.44229c-0.2,-0.97303 -1.1,-1.50378 -2.9,-1.50378c0.2,-0.17691 0.3,-0.44229 0.2,-0.79612c2.5,0 6.4,-0.6192 5.5,1.32686c1.4,0.79612 2.3,-0.35383 2.4,0.35383c0.7,-0.08846 1,-0.53074 1.7,-0.6192c-0.9,-0.53074 -3.4,0 -3.6,-0.97303c1,0.17691 1.5,0 2.9,-0.26537c-0.5,-0.88457 -1.9,-0.97303 -2.4,-1.85761c1.9,0.17691 4.7,-0.44229 7,0.88457c1.5,-0.88457 5.8,-1.68069 5.3,0.53074c-1.6,-0.88457 -3.4,-0.26537 -4.8,0.6192c-0.9,0.08846 -1.1,-0.26537 -1.5,-0.53074c-1.9,0.08846 -3.1,2.12298 -1,2.65372c0,0.26537 -0.2,0.35383 -0.5,0.44229c-0.1,0.44229 1.2,-0.44229 1,0.35383c0.5,-0.35383 2,-0.53074 1.9,0.35383c0.7,-0.17691 1.9,-0.6192 2.4,0c0,-0.35383 0.7,-0.79612 0.2,-1.32686c3,-1.41532 4.5,0.17691 7.5,0.08846c0.1,-1.14995 -2.2,-0.70766 -1.6,-2.29989c-0.4,-0.26537 -0.9,-0.44229 -1.6,-0.53074c0.9,-1.06149 -2.1,-0.44229 -1.4,-1.85761c-1.1,0 -1.9,-0.26537 -2.1,-0.97303c-0.5,0.26537 -0.5,0.88457 -1.2,0.97303c-1.2,0.17691 -2.4,-1.06149 -2.9,0c-1.4,-0.08846 -1.7,-0.97303 -3.3,-0.97303c0.1,0.53074 -0.1,0.79612 -0.2,1.14995c-1.8,0.35383 -3.2,-0.53074 -4.3,-0.17691c-1,-0.26537 -0.5,-0.44229 -0.5,-1.14995c-0.4,0.08846 -1,0.08846 -1.2,0.35383c-0.7,-0.6192 -1.3,-1.32686 -2.9,-1.32686c0.1,0.08846 0.1,0.17691 0.2,0.26537c-0.2,-0.17691 -0.3,-0.35383 -0.6,-0.53074l0,0c-0.3,-0.17691 -0.7,-0.35383 -0.4,-0.88457c-1.4,0 -2.2,-0.44229 -3.1,-1.14995c-0.4,0.26537 -1.1,0.35383 -1.2,0.79612c-0.5,-0.53074 -0.3,-2.03452 0.3,-2.29989c0.4,0.88457 2.3,0.70766 2.4,1.68069c0.8,0.08846 0.8,-0.35383 1.7,-0.26537c0.5,0.35383 0.5,0.88457 0.2,1.32686c0.9,0.26537 1.5,0.26537 2.4,0.17691c0.1,-0.70766 -0.3,0 -1,-0.17691c-0.1,-1.06149 1.2,-0.97303 2,-0.6192c0.4,-0.44229 0.1,-0.79612 0.6,-1.06149c0.1,0 0.1,0 0.2,0c0.3,0.17691 0.1,0.44229 0.2,0.79612c0.6,0.26537 1.1,0.53074 2.1,0.53074c0.8,-0.53074 0,-1.06149 0.8,-1.50378c1.8,0.44229 3.8,0.70766 5.4,1.2384c-0.4,0 -0.7,0.17691 -1.1,0.17691c0.7,1.41532 4.6,0.08846 5.5,0.70766c0,0 0,-0.08846 0.1,-0.08846c0.6,0 1.2,0.08846 1.3,0.44229c-0.2,0.35383 -1.2,0.08846 -1.6,0.26537c-0.1,0 -0.1,0 -0.2,0c-1,-0.44229 -1.5,-0.44229 -2.8,-0.53074c0.3,0.44229 0.8,0.44229 1.3,0.6192c-1.7,0.08846 -3.4,0.26537 -5.3,0.35383c-0.2,0.6192 1.8,0.70766 1.9,0.17691c2,1.06149 5.7,0.53074 7.5,0.44229c0.1,-0.53074 -0.5,-0.53074 -0.9,-0.70766c0.3,-0.35383 0.5,-0.70766 0.4,-1.32686c-0.6,0 -0.8,-0.08846 -1,-0.26537c0.2,-0.08846 0.4,-0.17691 0.5,-0.35383c0.1,0 0.4,0 0.5,0.08846c0.9,0.17691 0.8,-0.26537 1.2,-0.44229c0.5,0.35383 0.7,0.88457 1,1.32686c-0.2,0.53074 -0.8,-0.08846 -1.2,0c0.5,1.06149 2.3,1.14995 3.3,1.85761c-0.5,0.35383 0.3,0.79612 0,1.50378c0.7,0 0.9,-0.44229 1.9,-0.26537c2,0.88457 1.1,2.65372 3.6,3.27293c-0.3,0.44229 -0.2,0.88457 0.7,0.97303c0.1,-0.35383 -0.4,-0.35383 -0.2,-0.79612c0.7,0.17691 0.3,0.70766 1.2,0.35383c0,0.44229 -0.2,1.06149 0.2,1.32686c0.4,-0.53074 0.9,-0.17691 1.7,-0.17691c0,0.17691 0,0.35383 0,0.6192c1.9,-1.2384 4.3,0.53074 6.3,0.44229c0.3,-0.08846 0.9,-0.53074 1.2,-0.53074c0.2,0 0.4,0.53074 0.9,0.53074c0.2,0 0.8,-0.35383 1,-0.35383c0.6,0.17691 1.3,1.06149 2.1,0.53074c-0.4,-0.53074 -1.4,-0.70766 -2.1,-0.97303c-0.1,-0.35383 0.4,-0.53074 0.7,-0.6192c-0.4,-0.35383 -0.6,-0.26537 -1.2,-0.17691c0.2,-0.35383 0.1,-1.06149 1,-0.97303c-0.3,-0.26537 -1.9,-0.17691 -2.2,0c-0.4,0.6192 0.8,0.17691 0.7,0.53074c0,0.53074 -1.4,0.08846 -1.9,0c0.6,-0.88457 -0.8,-0.44229 -0.2,-1.41532c-0.8,-0.26537 -0.2,0.44229 -1,0.26537c-0.4,-0.26537 0.1,-0.44229 0.5,-0.6192c-0.7,-0.35383 -1.6,-0.35383 -1.9,-0.88457c-1.2,0.35383 -1.7,1.14995 -2,2.12298c-0.8,0 -1,-0.26537 -1.2,-0.53074c0.3,-0.6192 0.5,-1.14995 0.5,-1.59223c3.6,-0.08846 6.8,-0.35383 10.1,-1.50378c0.8,0 0.7,0.70766 1.4,0.79612c1.1,-0.08846 1.5,0.26537 1.7,-0.44229c0.8,0.44229 1.6,0.26537 2.6,0c-0.3,-2.21144 -3.8,-0.97303 -5,-1.68069c-0.3,0.44229 -0.6,0.97303 -1.9,0.79612c-0.2,-0.17691 -0.4,-0.35383 -0.5,-0.53074c0.1,-0.26537 0.6,-0.26537 0.8,-0.44229c0.7,-0.08846 1.4,0 2.1,-0.17691c0.2,-0.44229 -0.3,-0.44229 -0.5,-0.6192c1.3,-0.17691 2.8,-0.26537 3.9,-0.17691c-0.6,-0.6192 1.1,-0.88457 1.3,-1.50378c0.2,-0.17691 0.4,-0.44229 0.9,-0.44229c0.2,0.53074 -0.8,0.17691 -0.5,0.79612c1.9,0.44229 2.9,-0.35383 4.6,-0.70766c0.7,0.53074 1.9,0.6192 2.4,1.2384c-0.2,0.08846 -0.5,0.08846 -0.5,0.44229c0.9,0.08846 0.9,0.79612 2.2,0.53074c-0.1,-0.26537 -0.4,-0.35383 -1,-0.35383c-0.2,-1.68069 1.6,-1.68069 3,-1.50378c0.1,0.26537 0.6,0.08846 0.6,0.44229c0.2,-0.08846 0.3,-0.08846 0.5,0c0.3,0.26537 0.5,0.6192 0.7,0.97303c1.1,-0.08846 1,-0.88457 1.7,-1.14995c1,0.97303 1.8,2.12298 3.8,2.47681c-0.7,-0.44229 -0.5,-0.6192 -0.7,-1.14995c0.3,-0.6192 2.8,-0.44229 2.1,0.70766c0,0.26537 -0.3,0.35383 -0.9,0.35383c0,0.44229 0.2,1.14995 -0.5,1.14995c0.4,-0.08846 1.5,0.6192 1.9,-0.17691c0.6,0.70766 1.1,1.59223 1.6,2.47681c1,-0.35383 2.7,-0.17691 2.9,-0.97303c0,-0.53074 -0.8,-0.44229 -1.4,-0.53074c1.3,-0.35383 2.6,-0.70766 3.9,-0.6192c-1.1,-0.70766 0.8,-0.88457 0,-1.76915c0.7,-0.6192 1.7,-0.53074 2.6,-0.17691c0.2,0.6192 -0.7,0.26537 -0.7,0.70766c0.3,1.06149 1.5,1.50378 2.9,1.85761c-0.1,0.79612 0.3,1.2384 0.7,1.68069c0.9,-0.44229 2,-0.6192 3.1,-0.17691c0,0.17691 0,0.35383 0,0.6192c-0.3,0.44229 -1.5,0.08846 -2.2,0.17691c-0.8,0.26537 1.2,0.08846 1.2,0.35383c-0.3,0.6192 0,0.79612 -0.3,1.50378c1.6,-0.97303 2.7,-2.29989 4.2,-3.36138c-1.5,0 -2.5,-0.26537 -4.1,-0.17691c-0.3,-1.14995 1.7,-0.70766 1.5,-1.76915c-0.6,-0.26537 -1.3,-0.44229 -2.1,-0.53074c-0.1,-0.35383 0.4,-0.53074 0.5,-0.79612c1.1,0.17691 2.7,0.26537 4.2,0.26537c-0.2,0.08846 -0.3,0.17691 -0.6,0.17691c0,0.26537 0.4,0.35383 0.3,0.6192c0.7,0.17691 0.7,-0.17691 1.2,-0.26537c-0.2,-0.17691 -0.3,-0.35383 -0.4,-0.53074c2.1,0.08846 4.1,0 5.1,-0.44229c2.4,1.68069 8.3,-1.41532 8.4,2.21144c1.3,-0.17691 3.1,0.26537 3.6,1.06149c-0.9,0.35383 -2.2,0.26537 -3.4,0.79612c-0.1,0.26537 1,0.44229 0.3,0.53074c0,0.17691 0.4,0.17691 0.7,0.17691c0.9,0 -0.1,-0.26537 0.5,-0.53074c1.3,0.44229 1.9,0.17691 3.1,-0.26537c-0.2,-1.32686 -0.7,-1.59223 -0.7,-2.9191c0.8,0.08846 1,0.35383 1.2,0.70766c0.8,-0.35383 2.1,-0.35383 2.2,-1.14995c0.7,0.17691 0.8,0.53074 0.5,0.97303c1.9,0 4.2,-0.35383 6.5,-0.53074c-0.4,0 0,0.6192 -0.5,0.53074c0.2,0.26537 0.8,0.26537 1.2,0.35383c-0.1,-0.26537 -0.7,-0.26537 -0.5,-0.79612c-0.1,-0.08846 -0.1,-0.08846 -0.2,-0.08846c3.4,-0.35383 6.8,-0.53074 9.4,0.26537c-0.4,0.6192 -0.9,1.14995 -1.9,0.6192c0.8,0.79612 -1.2,0.08846 -1.4,0.97303c1.3,-0.44229 2,0.08846 1.9,0.79612c1.7,-0.26537 2.2,0.44229 3.8,0.35383c0,-0.08846 0.2,-0.17691 0.3,-0.26537c0.3,0.53074 0.1,1.32686 -0.6,1.59223c0.8,0.17691 1.3,0.6192 2.2,0.35383c0,-0.17691 0,-0.44229 0,-0.6192c0.9,-0.17691 1.6,0.6192 2.1,0.17691c0.1,-0.53074 -1,-0.26537 -0.9,-0.79612c0.2,-0.35383 0.8,-0.53074 1.7,-0.44229c-0.2,-0.6192 -1.2,-0.17691 -1.9,-0.17691c-0.6,-0.53074 1.7,-1.06149 0.3,-1.68069c1.1,0.53074 1.3,-0.26537 1.9,-0.6192c0.4,0.6192 2.1,0.35383 1.9,1.32686c1.3,-0.26537 2.6,-0.26537 4.1,-0.08846c-0.1,-0.26537 0,-0.35383 0.2,-0.35383c0.4,-0.6192 -1.1,0 -0.7,-0.6192c0.2,-0.53074 0.8,0.08846 1.2,0c0,-0.6192 -0.4,-1.06149 -1,-1.32686c-0.1,-0.35383 1.1,0.17691 0.7,-0.44229c3.6,0.97303 7.8,0.17691 12.1,0.08846c0.4,-0.44229 0.9,-0.70766 1,-1.32686c1.2,0 0.7,1.50378 -0.3,1.32686c0,0.44229 0.6,0.6192 0.9,0.97303c0.7,-0.17691 1,-0.70766 1.2,-1.14995c0.8,0.26537 1.6,-0.35383 1.7,-1.14995c1.8,0.44229 5.3,0.53074 3.6,2.03452c2.9,0 0.7,2.03452 1.2,2.29989c-0.7,0.70766 -2.2,-0.17691 -3.6,0.08846c0.1,-0.6192 -1,-1.59223 1,-1.59223c0.4,0 0.5,0.26537 0.4,0.6192c0.5,-0.08846 0.6,-0.44229 0.7,-0.79612c-0.8,-0.17691 -1.6,-0.35383 -2.4,-0.53074c-0.8,0.08846 -0.2,0.35383 0,0.6192c-0.6,-0.26537 -0.7,-0.26537 -1.6,-0.17691c-0.2,0 -0.4,-0.08846 -0.5,-0.26537c-0.5,0.53074 -1.1,0.17691 -1.7,0.44229c-0.3,0.35383 0.7,0.6192 0,0.6192c0.4,0.44229 2.3,0 1.9,0.97303c-0.3,0.53074 -2.1,-0.70766 -1.9,0.44229c-0.8,0 0,-0.97303 -1.2,-0.70766c0.1,-0.35383 0.5,-0.6192 0,-0.97303c-0.8,0.08846 -1,0.53074 -1.7,0.6192c-0.3,0.88457 0.6,0.97303 0.4,1.76915c1.2,-0.26537 1.4,0.08846 2.4,0.17691c0.2,0.53074 -0.3,0.44229 -0.7,0.6192c0,0.17691 0.4,0.17691 0.7,0.17691c0.2,0.53074 -0.7,0.26537 -0.5,0.79612c0.1,0.17691 1.6,0.35383 0.4,0.35383c2.5,0.79612 10.3,-2.21144 11.1,1.41532c1.2,-0.17691 1.5,-0.44229 2.9,-0.17691c-0.2,-0.26537 -0.4,-0.53074 -1,-0.53074c0.7,-0.70766 0.9,-1.41532 0.3,-2.12298c0,-0.35383 0.9,-0.08846 1.2,-0.17691c0.2,0.70766 -0.3,1.2384 0,1.50378c2.2,-0.6192 5.6,1.2384 6.3,-0.44229c-1.6,0.53074 -2.1,-0.79612 -3.8,-0.17691c-0.6,-0.08846 -0.2,-0.88457 0,-0.97303c0.3,0.26537 1.1,0.26537 1,0.70766c0.4,0 0.2,-0.53074 0.5,-0.6192c0.5,0.35383 1.9,0 2.1,0.53074c0.4,-0.35383 -0.6,-0.44229 0,-1.14995c-0.9,-0.26537 -2,-0.44229 -2.4,-1.14995c2.2,-0.26537 3.1,0.17691 5.3,0.26537c-1.2,0.44229 -0.2,1.41532 0.2,2.12298c-0.8,0 -0.8,0.44229 -1,1.14995c3.9,0.53074 10,0.53074 14.6,0.53074c0.2,-0.17691 0,-0.6192 0.7,-0.53074c0.1,-0.70766 -1.3,-0.53074 -1.6,-0.97303c0,-0.35383 0.6,0.17691 0.9,-0.17691c0,-0.26537 0,-0.53074 0,-0.79612c-1.1,-0.26537 -3.1,0 -4.1,-0.35383c1.1,-1.2384 5.4,-0.26537 7.2,-1.06149c1.4,0.44229 2.8,0.70766 4.6,0.53074c0.3,0 0.1,0.35383 0.2,0.6192c-0.8,0.35383 -1.4,0.08846 -2.2,0.26537c-0.2,1.14995 1.6,0.79612 2.9,0.88457c0.1,0.88457 -1.9,0.17691 -1.9,0.97303c-1.3,-0.70766 -2.7,-0.35383 -3.6,0.26537c-0.6,0 -0.1,-0.70766 -0.9,-0.53074c0.2,0.6192 1.2,0.70766 1.4,1.32686c1.6,-0.26537 2.6,-0.53074 3.6,0.35383c0,0.44229 -0.1,0.70766 -0.8,0.70766c0.4,0.44229 1.1,-0.17691 1.7,0c-0.2,-0.17691 -0.6,-0.26537 -0.4,-0.79612c4.1,-0.53074 7.6,0.08846 11.3,-0.53074c-0.7,-0.35383 -0.2,-0.6192 -0.5,-0.97303c-1.2,-0.17691 -2.5,-0.79612 -3.4,-0.17691c-0.4,0 -0.5,-0.26537 -0.4,-0.6192c0.6,-0.35383 2.2,0.08846 2.4,-0.6192c0.9,0.08846 0.7,0.88457 1.1,1.32686c0.6,-0.17691 1.4,-0.6192 2,-0.17691c0.1,0.70766 -0.8,0.70766 -1,1.14995c3.4,-0.26537 9,0.6192 13.7,-0.35383c1.5,0.44229 3.7,0.53074 4.4,-0.44229c0.6,-0.26537 2.2,0.79612 2.6,-0.26537c-0.6,0 -1.1,0 -1.4,-0.17691c0.5,-0.70766 1.2,-1.14995 1.5,-1.94606c-0.4,0 -0.8,0 -1.2,0c0.2,0.6192 -0.3,0.79612 -0.3,1.32686c-0.6,-0.17691 -0.8,-0.44229 -1.7,-0.35383c-0.3,-0.08846 -0.8,-0.70766 -0.2,-0.79612c-0.7,-0.44229 -1.7,0.44229 -2.4,0.6192c-0.5,0 -0.1,-0.70766 -0.5,-0.79612c-1.9,0.35383 -2.7,-0.26537 -3.9,0.26537c-0.1,0.53074 0.7,0.35383 0.5,0.97303c-0.7,-0.26537 -1.4,-0.6192 -1.7,-1.14995c-3.1,-0.08846 -8.7,0.44229 -12,-0.08846c0.5,-0.17691 1.3,-0.26537 1.6,-0.6192c0.2,-0.08846 0.4,-0.08846 0.6,-0.08846c3,0.88457 7.3,0 10.3,0.08846c-0.6,-0.26537 -1.5,-0.35383 -2.4,-0.35383c0,-1.2384 1.6,-1.14995 2.4,-0.97303c0.1,0.08846 1.5,1.2384 0.9,1.2384c3.4,0.70766 7,-0.53074 9.4,0.08846c0,-0.70766 -1.6,-0.53074 -1.9,-1.14995c1.6,-0.26537 3.4,0.70766 4.3,1.41532c3.4,-0.53074 6.5,0 9.4,-0.26537c0,-0.88457 -0.9,-1.14995 -1.4,-1.68069c-1.1,0.17691 0,0.97303 -1.2,1.14995c-0.5,-0.26537 -0.3,-0.97303 -1,-1.14995c0.3,1.32686 -4.9,1.68069 -5.3,0.44229c0,-0.26537 0.6,-0.17691 0.9,-0.17691c0,-1.76915 -1.8,-1.50378 -3.5,-1.50378c-0.1,-0.35383 0,-0.6192 0.2,-0.79612c2.2,0.79612 4.7,-0.6192 7,0.08846c0,-0.53074 0.9,-0.35383 0.7,-0.97303c1.2,0 2.9,0.35383 3.4,-0.44229c0.4,0.53074 2,0.35383 2.4,0.88457c-0.1,0.17691 -1.4,-0.08846 -1.9,0.17691c0,0.97303 1,1.2384 1.4,1.94606c1.6,0.17691 3,0.35383 4.1,-0.26537c2,1.2384 6.9,0.26537 9.4,0.88457c-0.5,-0.53074 -0.2,-0.6192 -0.5,-1.14995c-2.7,-0.17691 -3.9,-0.08846 -6.8,-0.08846c-0.2,-0.17691 -0.4,-0.35383 -0.5,-0.53074c0.8,-0.26537 2.9,0 3.8,0c1.1,-0.97303 3.5,-1.2384 4.9,-2.03452c0.3,0.17691 0.6,0.26537 0.7,0.53074c-0.6,0.53074 -1.8,0.6192 -2.4,1.14995c2.6,0.17691 3.9,0.26537 5.3,0.70766c-1.2,0.70766 -1.3,-0.17691 -3.4,0.26537c-0.1,0.44229 -0.4,0.70766 -1,0.79612c1,0.53074 3.5,-0.53074 4.3,0.35383c-1.8,0.88457 -4.4,-0.17691 -6.6,0.70766c0,0.35383 0.4,0.44229 0.5,0.79612c0.9,0.17691 0.9,-0.35383 1.5,-0.44229c5,0.6192 12.5,0.88457 17.1,0.53074c0.2,-0.6192 -1.2,-0.17691 -1,-0.79612c0.6,-0.35383 2.1,0.17691 3.1,-0.6192c0.9,0.6192 4.8,0.6192 5.6,-0.26537c1.3,0 2.9,0.53074 4.1,0.17691c0.2,-0.53074 -0.8,-0.26537 -1,-0.53074c-0.2,-0.44229 0.7,-0.26537 0.5,-0.79612c2.3,0.6192 5.9,0.17691 8.6,0.70766l0,0.00001z" id="svg_3" fill="black"/>
            </g>
        </g>
        <rect id="svg_4" height="152.8889" width="1919.90996" y="1.42778" x="0.09008" stroke-linecap="null" stroke-linejoin="null" stroke-dasharray="null" stroke-width="null" fill="black"/>
    </g>
</svg>